<svg width="34" height="46" viewBox="0 0 34 46" fill="none" xmlns="http://www.w3.org/2000/svg">
  <path d="M33.2012 16.6021C33.2012 21.3718 30.2633 23.9467 27.4839 28.3535C25.8566 31.2913 21.5004 45.0013 18.0223 45.0013C14.5442 45.0013 10.9225 31.5361 9.05024 28.3535C6.02604 24.1915 3.33301 21.3718 3.33301 16.6021C3.33301 8.35419 10.0192 1.66797 18.2671 1.66797C26.515 1.66797 33.2012 8.35419 33.2012 16.6021Z" fill="#E9F0F9"/>
  <path d="M23.3051 26.152L23.29 26.1761L23.2762 26.2009C22.8327 27.0015 22.228 28.4814 21.5489 30.149C21.5207 30.2184 21.4922 30.2883 21.4636 30.3585C20.7903 32.0124 20.0228 33.8978 19.204 35.6968C18.3465 37.5806 17.4548 39.32 16.5843 40.5755C16.1482 41.2045 15.7451 41.6712 15.3862 41.9714C15.0184 42.2789 14.792 42.3333 14.6893 42.3333C14.5869 42.3333 14.374 42.2826 14.0338 41.9902C13.6984 41.7019 13.3238 41.2495 12.9203 40.6324C12.1147 39.4003 11.306 37.6877 10.5236 35.8171C9.91075 34.3517 9.32974 32.8282 8.78736 31.406C8.63977 31.019 8.49503 30.6395 8.35329 30.2707C7.7066 28.588 7.09835 27.0611 6.57916 26.1785L6.55464 26.1368L6.52622 26.0977C6.08661 25.4927 5.66138 24.9233 5.25516 24.3795C2.77226 21.0552 1 18.6823 1 14.9341C1 7.2385 7.2385 1 14.9341 1C22.6297 1 28.8682 7.2385 28.8682 14.9341C28.8682 17.0823 28.2163 18.7398 27.1959 20.4288C26.6777 21.2865 26.0723 22.14 25.4022 23.0809L25.3597 23.1407C24.7075 24.0564 24.0021 25.0469 23.3051 26.152Z" stroke="#808080" stroke-width="2"/>
  <circle cx="15.0003" cy="15.0013" r="7.33333" stroke="#808080" stroke-width="2"/>
</svg>
