<svg width="27" height="24" viewBox="0 0 27 24" fill="none" xmlns="http://www.w3.org/2000/svg">
<path d="M13.8934 1.36877C6.78865 1.36877 1.02914 5.89515 1.02914 11.4764C1.02914 14.1191 2.32108 16.5284 4.43633 18.3293C4.35547 20.0844 3.99159 22.4441 2.70517 23.6607C5.16224 23.6607 7.67812 22.0434 9.17037 20.8783C10.6332 21.3341 12.2265 21.584 13.8934 21.584C20.9981 21.584 26.7576 17.0576 26.7576 11.4764C26.7576 5.89515 20.9981 1.36877 13.8934 1.36877Z" fill="#E9F0F9"/>
<path d="M4.40612 17.0066L4.42868 16.5169L4.05547 16.1992C2.12062 14.5518 1 12.4054 1 10.1076C1 5.28983 6.07377 1 12.8642 1C19.6547 1 24.7285 5.28983 24.7285 10.1076C24.7285 14.9254 19.6547 19.2152 12.8642 19.2152C11.2971 19.2152 9.80412 18.9802 8.43868 18.5548L7.93863 18.399L7.5258 18.7213C6.81317 19.2777 5.8709 19.9299 4.83051 20.4396C4.45431 20.6239 4.07302 20.7857 3.69162 20.9174C3.79589 20.6427 3.88388 20.365 3.95853 20.091C4.24672 19.033 4.36382 17.9248 4.40612 17.0066Z" stroke="#808080" stroke-width="2"/>
</svg>
