<svg width="19" height="25" viewBox="0 0 19 25" fill="none" xmlns="http://www.w3.org/2000/svg">
<path d="M17.9992 22.3274L17.1577 15.8736C16.87 13.6609 14.9438 12.0247 12.6616 12.0247H6.45769C4.17548 12.0247 2.24879 13.6609 1.96158 15.8736L1.11959 22.3395C1.06163 22.7917 1.20394 23.3602 1.51186 23.7011C1.8203 24.0425 2.2638 24.352 2.72956 24.352H16.3892C16.855 24.352 17.2985 24.0364 17.6074 23.695C17.9153 23.3526 18.0576 22.7801 17.9992 22.3274Z" fill="#E9F0F9"/>
<path d="M9.55917 10.5445C12.2258 10.5445 14.3875 8.4318 14.3875 5.82561C14.3875 3.21942 12.2258 1.10669 9.55917 1.10669C6.89255 1.10669 4.73082 3.21942 4.73082 5.82561C4.73082 8.4318 6.89255 10.5445 9.55917 10.5445Z" fill="#E9F0F9"/>
<path d="M16.5005 22.588L15.759 21.917C15.6572 22.0295 15.5463 22.1222 15.4451 22.1815C15.3425 22.2415 15.2891 22.245 15.2823 22.245H1.62266C1.6116 22.245 1.55644 22.2403 1.45535 22.1818C1.35528 22.124 1.24626 22.0335 1.14698 21.9237C1.06645 21.8344 0.977481 21.5731 1.00448 21.3603C1.00451 21.3601 1.00454 21.3599 1.00457 21.3596L1.8463 14.8957L1.84636 14.8953C2.06571 13.2054 3.54599 11.9176 5.35079 11.9176H11.5547C13.3593 11.9176 14.8394 13.2052 15.0591 14.8955L15.0592 14.8959L15.9005 21.3485C15.9005 21.3485 15.9005 21.3486 15.9005 21.3487C15.9281 21.5625 15.8384 21.8287 15.7569 21.9193L16.5005 22.588ZM16.5005 22.588C16.1916 22.9294 15.7481 23.245 15.2823 23.245H1.62266C1.1569 23.245 0.713394 22.9354 0.404959 22.594C0.0970416 22.2531 -0.0452732 21.6846 0.0126878 21.2325L16.8923 21.2203C16.9507 21.673 16.8084 22.2455 16.5005 22.588Z" stroke="#808080" stroke-width="2"/>
<path d="M12.2806 4.71892C12.2806 6.75134 10.5883 8.43785 8.45226 8.43785C6.31618 8.43785 4.6239 6.75134 4.6239 4.71892C4.6239 2.68651 6.31618 1 8.45226 1C10.5883 1 12.2806 2.68651 12.2806 4.71892Z" stroke="#808080" stroke-width="2"/>
</svg>
