<svg width="26" height="25" viewBox="0 0 26 25" fill="none" xmlns="http://www.w3.org/2000/svg">
<path d="M4.3094 18.5634C2.53469 18.5634 1.09091 20.0071 1.09091 21.7818C1.09091 23.5565 2.53474 25.0003 4.3094 25.0003C6.08407 25.0003 7.52785 23.5565 7.52785 21.7818C7.52785 20.0071 6.08403 18.5634 4.3094 18.5634Z" fill="#E1E9F4"/>
<path d="M22.8944 23.094C22.5432 20.438 21.7616 17.8755 20.5713 15.4779C19.4111 13.1404 17.8891 11.0112 16.0479 9.14943C14.1739 7.25427 12.0208 5.68739 9.64814 4.49239C7.21483 3.26665 4.61041 2.46362 1.90734 2.10544C1.42691 2.04199 0.94152 2.18871 0.576313 2.50868C0.210077 2.82959 0 3.29279 0 3.77956V5.42841C0 6.26107 0.624682 6.9785 1.45313 7.09726C5.56415 7.68677 9.31085 9.5448 12.2881 12.4702C13.7826 13.939 15.0228 15.6258 15.9746 17.4839C16.9498 19.3877 17.5983 21.427 17.9019 23.5449C18.0207 24.3744 18.7394 25 19.5736 25H21.22C21.7068 25 22.1701 24.79 22.4909 24.4239C22.8109 24.059 22.9579 23.5742 22.8944 23.094Z" fill="#E1E9F4"/>
<path d="M15.4678 22.9811C14.8111 19.6707 13.198 16.6498 10.8031 14.2452C8.39099 11.8235 5.35358 10.1937 2.0192 9.53207C1.52056 9.43314 1.00944 9.56124 0.616718 9.88363C0.224753 10.2053 0 10.6807 0 11.1878V12.8548C0 13.6509 0.543068 14.3282 1.32069 14.5017C3.56057 15.0021 5.60706 16.129 7.2389 17.7608C8.87115 19.3931 9.99814 21.4396 10.498 23.6788C10.6716 24.4566 11.3489 24.9997 12.1451 24.9997H13.8119C14.3189 24.9997 14.7943 24.7749 15.1161 24.383C15.4385 23.9905 15.5666 23.4796 15.4678 22.9811Z" fill="#E1E9F4"/>
<path d="M25.0763 22.0031C24.725 19.347 23.9435 16.7846 22.7532 14.3869C21.5929 12.0495 20.0709 9.92027 18.2297 8.05849C16.3558 6.16332 14.2026 4.59645 11.83 3.40145C9.39665 2.17571 6.79224 1.37268 4.08916 1.0145C3.60874 0.951047 3.12334 1.09777 2.75814 1.41774C2.3919 1.73865 2.18182 2.20184 2.18182 2.68862V4.33747C2.18182 5.17012 2.80651 5.88756 3.63496 6.00631C7.74597 6.59583 11.4927 8.45385 14.47 11.3793C15.9644 12.8481 17.2047 14.5349 18.1564 16.393C19.1316 18.2968 19.7801 20.3361 20.0837 22.454C20.2026 23.2834 20.9213 23.909 21.7554 23.909H23.4019C23.8886 23.909 24.3519 23.699 24.6727 23.3329C24.9927 22.9681 25.1397 22.4833 25.0763 22.0031ZM23.6573 22.4427C23.6194 22.486 23.5358 22.5585 23.402 22.5585H21.7555C21.586 22.5585 21.4451 22.434 21.4205 22.2623C21.0957 19.9961 20.4018 17.8142 19.3585 15.7772C18.3406 13.7903 17.0144 11.9865 15.4166 10.4161C12.2324 7.2874 8.22461 5.30024 3.82651 4.66952C3.65603 4.64509 3.53227 4.50539 3.53227 4.33738V2.68853C3.53227 2.55484 3.6048 2.47125 3.64807 2.43335C3.68556 2.40056 3.76042 2.35008 3.86629 2.35008C3.88087 2.35008 3.89604 2.35111 3.91179 2.35313C6.46471 2.69149 8.92442 3.44987 11.2224 4.60723C13.464 5.73632 15.4985 7.21693 17.2693 9.00775C19.0093 10.7672 20.4473 12.7789 21.5435 14.9872C22.6676 17.2514 23.4058 19.6714 23.7374 22.1798C23.7545 22.3094 23.6946 22.4002 23.6573 22.4427Z" fill="#8A8A8F" stroke="#8A8A8F" stroke-width="0.5"/>
<path d="M17.6496 21.89C16.9929 18.5796 15.3798 15.5588 12.9849 13.1542C10.5728 10.7325 7.5354 9.10265 4.20102 8.441C3.70239 8.34207 3.19127 8.47018 2.79854 8.79256C2.40658 9.11428 2.18182 9.58965 2.18182 10.0967V11.7637C2.18182 12.5599 2.72489 13.2372 3.50251 13.4107C5.74239 13.911 7.78888 15.0379 9.42073 16.6698C11.053 18.3021 12.18 20.3485 12.6798 22.5877C12.8535 23.3655 13.5308 23.9087 14.3269 23.9087H15.9937C16.5007 23.9087 16.9762 23.6839 17.298 23.292C17.6203 22.8994 17.7485 22.3885 17.6496 21.89ZM16.2543 22.435C16.2165 22.4811 16.1324 22.5583 15.9937 22.5583H14.3269C14.1679 22.5583 14.0325 22.4494 13.9978 22.2936C13.442 19.8037 12.1894 17.5288 10.3755 15.7149C8.56212 13.9015 6.2872 12.649 3.79671 12.0928C3.64095 12.058 3.53218 11.9227 3.53218 11.7637V10.0967C3.53218 9.95812 3.60941 9.87405 3.6554 9.83624C3.69371 9.80491 3.76727 9.75865 3.86906 9.75865C3.89081 9.75865 3.91381 9.76075 3.93815 9.76558C7.00853 10.3749 9.80589 11.8762 12.028 14.1071C14.2344 16.3224 15.7203 19.1045 16.325 22.1528C16.3522 22.2903 16.2924 22.3887 16.2543 22.435Z" fill="#8A8A8F" stroke="#8A8A8F" stroke-width="0.5"/>
<path d="M5.40032 17.4723C3.6256 17.4723 2.18182 18.9161 2.18182 20.6907C2.18182 22.4654 3.62565 23.9092 5.40032 23.9092C7.17498 23.9092 8.61876 22.4654 8.61876 20.6907C8.61876 18.9161 7.17494 17.4723 5.40032 17.4723ZM5.40032 22.5587C4.3702 22.5587 3.53222 21.7208 3.53222 20.6907C3.53222 19.6607 4.37029 18.8226 5.40032 18.8226C6.4303 18.8226 7.26837 19.6606 7.26837 20.6907C7.26832 21.7208 6.43034 22.5587 5.40032 22.5587Z" fill="#8A8A8F" stroke="#8A8A8F" stroke-width="0.5"/>
</svg>
