<svg width="20" height="27" viewBox="0 0 20 27" fill="none" xmlns="http://www.w3.org/2000/svg">
<path d="M19.9209 9.96045C19.9209 12.8223 18.1582 14.3672 16.4906 17.0113C15.5141 18.774 12.9004 27 10.8136 27C8.72671 27 6.55367 18.9209 5.43034 17.0113C3.61582 14.5141 2 12.8223 2 9.96045C2 5.01173 6.01173 1 10.9605 1C15.9092 1 19.9209 5.01173 19.9209 9.96045Z" fill="#E9F0F9"/>
<path d="M13.6447 15.4778L13.6296 15.5019L13.6158 15.5267C13.3351 16.0335 12.9613 16.9503 12.5589 17.9386L12.5085 18.0622C12.1039 19.0561 11.6461 20.1806 11.1583 21.2524C10.6463 22.3772 10.1231 23.3944 9.62186 24.1174C9.37033 24.4802 9.15193 24.7281 8.9751 24.876C8.89866 24.9399 8.84573 24.9722 8.81486 24.9881C8.78764 24.9731 8.74336 24.9444 8.68104 24.8908C8.51982 24.7522 8.3189 24.5153 8.08698 24.1606C7.62455 23.4533 7.15069 22.4537 6.6832 21.3359C6.31819 20.4631 5.9726 19.557 5.64744 18.7044C5.55854 18.4713 5.47117 18.2422 5.38535 18.0189C5.00153 17.0202 4.62424 16.0686 4.29227 15.5043L4.26775 15.4626L4.23932 15.4235C3.96894 15.0514 3.71039 14.7045 3.4657 14.3762C1.97565 12.377 1 11.0679 1 8.96045C1 4.56402 4.56402 1 8.96045 1C13.3569 1 16.9209 4.56402 16.9209 8.96045C16.9209 10.1548 16.5628 11.0778 15.9752 12.0505C15.6734 12.55 15.3191 13.0498 14.9155 13.6165L14.8881 13.6551C14.4979 14.203 14.069 14.8052 13.6447 15.4778Z" stroke="#808080" stroke-width="2"/>
<circle cx="9" cy="9" r="4" stroke="#808080" stroke-width="2"/>
</svg>
