<svg width="58" height="58" viewBox="0 0 58 58" fill="none" xmlns="http://www.w3.org/2000/svg">
    <g clip-path="url(#clip0)">
        <path d="M14.5626 31.2379C14.3338 31.2818 14.3338 31.6094 14.5626 31.6532L17.9302 32.71V30.1806L14.5626 31.2379Z" fill="#81A3BC"/>
        <path d="M25.2979 19.9277C24.745 21.749 25.6635 23.6404 27.3493 24.1522C29.0352 24.6641 30.8502 23.6025 31.4031 21.7812C31.956 19.9598 31.0376 18.0684 29.3517 17.5566C27.6658 17.0448 25.8509 18.1064 25.2979 19.9277Z" fill="#D9D9D9"/>
        <path d="M25.7033 20.736C25.0716 18.6551 22.998 17.4423 21.0719 18.0271C19.1458 18.6118 18.0965 20.7727 18.7282 22.8535C19.3599 24.9344 21.4334 26.1472 23.3595 25.5624C25.2856 24.9777 26.335 22.8168 25.7033 20.736Z" fill="#F0F0F0"/>
        <path d="M24.9679 33.4958V28.5566L27.1348 24.3185L26.6651 22.6072C25.0883 22.9023 23.6319 23.4198 22.3616 24.1104L20.1237 25.6774L18.8497 29.6719V33.464L20.4111 37.0648L22.3615 38.7809C23.6318 39.4715 25.0881 39.989 26.665 40.284L27.4533 38.4032L24.9679 33.4958Z" fill="#E1E9F4"/>
        <path d="M27.309 38.7475C27.0924 38.7159 26.8774 38.6809 26.665 38.641C25.0882 38.346 23.6318 37.8285 22.3616 37.1379C21.2492 36.5328 20.2798 35.7942 19.4962 34.9549L20.4111 37.0647L22.3616 38.7808C22.441 38.824 22.521 38.8665 22.6019 38.9083C22.8443 39.0336 23.0932 39.1528 23.3481 39.2655C24.0343 39.5689 24.7705 39.8256 25.5059 40.0217C25.884 40.1225 26.2707 40.2101 26.6649 40.2839L27.309 38.7475Z" fill="#147CAB"/>
        <path d="M20.0729 31.4454C20.0729 34.1791 20.9206 36.7107 22.3617 38.7809C19.3065 37.119 17.326 34.4523 17.326 31.4454C17.326 28.4391 19.3066 25.7718 22.3617 24.1104C20.9206 26.1806 20.0729 28.7121 20.0729 31.4454Z" fill="#10ADF7"/>
        <path d="M40.3213 35.668C38.9961 37.6859 36.7244 39.2593 33.8626 40.0351C32.5946 40.3791 31.2107 40.5664 29.7422 40.5664C28.6802 40.5664 27.649 40.4686 26.665 40.2841C24.49 38.0008 23.1495 34.883 23.1495 31.4455C23.1495 28.0085 24.49 24.8906 26.665 22.6074C27.649 22.4228 28.6802 22.3251 29.7422 22.3251C33.0891 22.3251 35.9954 23.2975 38.0941 24.8792C38.7127 25.3456 39.2615 25.8642 39.7302 26.4269L40.3213 35.668Z" fill="#10ADF7"/>
        <path d="M33.8626 38.3922C32.5946 38.7361 31.2107 38.9235 29.7422 38.9235C28.6802 38.9235 27.649 38.8256 26.665 38.6411C26.1274 38.5405 25.6042 38.4134 25.0972 38.2631C25.5527 38.9906 26.0781 39.6679 26.665 40.284C26.788 40.3071 26.9117 40.3288 27.0362 40.3492C29.2964 40.7186 31.6488 40.6356 33.8626 40.0351C36.1912 39.4036 38.4276 38.1509 39.9239 36.2235C40.0645 36.0424 40.197 35.8572 40.3213 35.668L40.2253 34.1671C38.8879 36.1167 36.6568 37.6348 33.8626 38.3922Z" fill="#147CAB"/>
        <path d="M41.6088 31.4454C41.6204 32.9425 41.1436 34.4226 40.3213 35.668C37.1216 40.5137 29.5581 40.2159 26.8941 34.7758C26.3887 33.744 26.1162 32.6206 26.1162 31.4454C26.1162 29.8153 26.6408 28.2848 27.5836 26.9602C29.418 24.3819 33.1352 24.0017 35.3987 26.2125C35.4344 26.2477 35.4701 26.2828 35.5053 26.3191C35.541 26.2828 35.5767 26.2477 35.6119 26.2125C35.619 26.2054 35.6262 26.1988 35.6333 26.1916C36.803 25.0632 38.6896 25.1785 39.7301 26.4268C40.9046 27.8355 41.5944 29.5962 41.6088 31.4454Z" fill="#E1E9F4"/>
        <path d="M41.6046 31.2563C41.5982 31.0583 41.5837 30.8604 41.5619 30.6636C41.4237 31.8607 40.9854 33.0194 40.3213 34.025C38.9961 36.043 36.7244 37.6164 33.8626 38.3922C33.1849 38.576 32.4738 38.7146 31.7347 38.8042C34.8227 39.657 38.3773 38.6119 40.3212 35.668C41.0687 34.5358 41.5286 33.2084 41.5992 31.8511C41.6093 31.6564 41.611 31.4563 41.6046 31.2563Z" fill="#C3CAD4"/>
        <path d="M17.3759 30.6239C17.3665 30.7014 17.3586 30.7792 17.3519 30.8573C17.3495 30.8844 17.3477 30.9116 17.3457 30.9388C17.2845 31.7546 17.3721 32.5775 17.6008 33.3628C18.0584 34.934 19.0564 36.2959 20.2859 37.3564C20.9013 37.8871 21.5979 38.3654 22.3617 38.7809C21.8243 38.0089 21.3695 37.1727 21.0103 36.2858C18.9842 34.8129 17.6442 32.8319 17.3759 30.6239Z" fill="#147CAB"/>
        <path d="M35.1819 20.2767C35.7161 20.2767 36.1491 19.8437 36.1491 19.3095C36.1491 18.7753 35.7161 18.3422 35.1819 18.3422C34.6477 18.3422 34.2146 18.7753 34.2146 19.3095C34.2146 19.8437 34.6477 20.2767 35.1819 20.2767Z" fill="#91B8D5"/>
        <path d="M36.1088 19.0368C36.0025 19.3942 35.6938 19.673 35.3002 19.7216C34.8232 19.7805 34.3854 19.4809 34.2547 19.0341C34.2178 19.158 34.2049 19.2912 34.2217 19.4277C34.2872 19.9579 34.7699 20.3346 35.3001 20.2693C35.8303 20.2038 36.2071 19.721 36.1417 19.1908C36.1352 19.1376 36.1233 19.0866 36.1088 19.0368Z" fill="#81A3BC"/>
        <path d="M38.5476 20.9656C39.0818 20.9656 39.5149 20.5326 39.5149 19.9984C39.5149 19.4642 39.0818 19.0311 38.5476 19.0311C38.0134 19.0311 37.5804 19.4642 37.5804 19.9984C37.5804 20.5326 38.0134 20.9656 38.5476 20.9656Z" fill="#91B8D5"/>
        <path d="M39.4745 19.7262C39.3682 20.0835 39.0595 20.3624 38.6659 20.411C38.1888 20.4699 37.7511 20.1702 37.6204 19.7234C37.5835 19.8473 37.5706 19.9805 37.5874 20.117C37.6529 20.6472 38.1356 21.024 38.6658 20.9586C39.196 20.8932 39.5728 20.4104 39.5074 19.8801C39.5009 19.827 39.489 19.776 39.4745 19.7262Z" fill="#81A3BC"/>
        <path d="M31.6573 30.8727C31.4304 30.8727 31.2465 31.0567 31.2465 31.2835V31.9845C31.2465 32.2113 31.4304 32.3953 31.6573 32.3953C31.8841 32.3953 32.068 32.2113 32.068 31.9845V31.2835C32.068 31.0566 31.8841 30.8727 31.6573 30.8727Z" fill="black"/>
        <path d="M39.404 30.8727C39.1771 30.8727 38.9932 31.0567 38.9932 31.2835V31.9845C38.9932 32.2113 39.1771 32.3953 39.404 32.3953C39.6308 32.3953 39.8147 32.2113 39.8147 31.9845V31.2835C39.8147 31.0566 39.6308 30.8727 39.404 30.8727Z" fill="black"/>
        <path d="M36.757 31.6265C36.5862 31.4772 36.3267 31.4946 36.1774 31.6654C36.0204 31.845 35.7847 31.9479 35.5306 31.9479C35.2765 31.9479 35.0408 31.8449 34.8839 31.6654C34.7346 31.4946 34.4751 31.4772 34.3043 31.6265C34.1335 31.7758 34.116 32.0352 34.2653 32.206C34.5783 32.5641 35.0394 32.7694 35.5306 32.7694C36.0217 32.7694 36.4829 32.564 36.7959 32.206C36.9452 32.0353 36.9278 31.7758 36.757 31.6265Z" fill="black"/>
        <path d="M40.065 26.1974C39.5663 25.5821 38.9911 25.0275 38.361 24.5525C38.0839 24.3437 37.7946 24.1465 37.4946 23.9611C37.5666 23.3044 37.7493 22.2933 38.2116 21.3309C38.3251 21.3612 38.4437 21.3781 38.5659 21.3781C39.3817 21.3781 40.0349 20.6414 39.9348 19.8312C39.8497 19.1418 39.2623 18.6219 38.5684 18.6219C37.7528 18.6219 37.0997 19.3596 37.1995 20.1688C37.2333 20.4425 37.3472 20.6887 37.5145 20.887C37.0496 21.8219 36.8279 22.7976 36.7226 23.5229C35.9501 23.1204 35.1179 22.7895 34.2406 22.5348C34.3469 21.9824 34.5302 21.301 34.8462 20.6416C34.9596 20.6719 35.0781 20.6888 35.2003 20.6888C35.6228 20.6888 36.0279 20.4915 36.2878 20.1584C36.5143 19.8682 36.6141 19.5072 36.569 19.1419C36.484 18.4525 35.8966 17.9325 35.2027 17.9325C34.3868 17.9325 33.7338 18.6692 33.8338 19.4794C33.8676 19.7534 33.9817 19.9997 34.1493 20.1982C33.7813 20.9394 33.5673 21.7052 33.444 22.3274C32.9002 22.2016 32.3417 22.1039 31.7719 22.0354C31.7869 21.9912 31.802 21.947 31.8154 21.9025C32.113 20.9224 32.0385 19.8918 31.6057 19.0005C31.1677 18.0986 30.4165 17.447 29.4905 17.1659C27.8255 16.6606 26.0702 17.5308 25.2567 19.0217C24.4627 18.0646 23.3067 17.4717 22.0795 17.4717C21.7046 17.4717 21.3322 17.5271 20.9724 17.6363C18.8329 18.2858 17.6588 20.6805 18.3551 22.9747C18.6424 23.9209 19.2053 24.7257 19.964 25.2921C19.3519 25.8297 18.8186 26.4163 18.3817 27.0391C17.7291 27.9693 17.2889 28.9827 17.0782 30.0253L14.4764 30.8421C14.1944 30.9093 14 31.154 14 31.447C14 31.74 14.1945 31.9847 14.4764 32.0519L17.0781 32.8683C17.2887 33.911 17.729 34.9244 18.3816 35.8547C19.2864 37.1445 20.6016 38.2816 22.1852 39.1431C23.5216 39.8697 25.01 40.3898 26.609 40.689C27.6327 40.8811 28.6935 40.9785 29.7619 40.9785C31.2326 40.9785 32.6551 40.7949 33.9899 40.4329C36.9013 39.6437 39.277 38.0341 40.6805 35.9004C40.6816 35.8988 40.6827 35.8973 40.6844 35.8948C42.6954 32.8482 42.332 28.9943 40.065 26.1974ZM38.1283 19.6576C38.2198 19.5404 38.3514 19.4658 38.499 19.4477C38.5221 19.4448 38.5454 19.4434 38.5684 19.4434C38.8482 19.4434 39.0852 19.6534 39.1195 19.9319C39.1571 20.2365 38.9398 20.5148 38.6353 20.5525C38.6122 20.5553 38.5889 20.5567 38.5659 20.5567C38.2861 20.5567 38.0492 20.3468 38.0148 20.0682C37.9966 19.9205 38.037 19.7748 38.1283 19.6576ZM35.1333 18.7585C35.4341 18.7191 35.7168 18.9427 35.7538 19.2424C35.7942 19.5701 35.53 19.8672 35.2002 19.8672C34.9204 19.8672 34.6835 19.6572 34.6491 19.3787C34.6117 19.0766 34.839 18.797 35.1333 18.7585ZM39.9963 35.4418C38.6411 37.4753 36.3204 38.6825 33.8823 38.6825C31.0899 38.6825 28.5127 37.1082 27.2827 34.5964C26.1086 32.1987 26.3984 29.3626 27.938 27.1996C29.5894 24.8793 33.0775 24.4865 35.1304 26.5066C35.2466 26.6209 35.3493 26.7304 35.525 26.7311C35.7006 26.7318 35.8214 26.6013 35.9382 26.4885C36.4125 26.0309 37.0643 25.792 37.7218 25.8291C38.3869 25.8667 39.0049 26.176 39.4344 26.6911C40.5712 28.0548 41.2045 29.7449 41.2178 31.45C41.2287 32.8673 40.7798 34.2662 39.9963 35.4418ZM25.7903 19.8216C26.2433 18.6474 27.3378 17.8412 28.5068 17.8412C28.7589 17.8412 29.0095 17.8785 29.2517 17.952C29.9563 18.1658 30.5298 18.6656 30.8667 19.3593C31.2088 20.0638 31.2666 20.8822 31.0294 21.6638C30.9996 21.7618 30.9649 21.8591 30.9256 21.955C30.8781 21.9518 30.4368 21.9291 30.2636 21.9234C29.6925 21.9067 29.121 21.9182 28.551 21.9575C28.2831 21.9761 27.7355 22.0337 27.7289 22.0345C27.9714 21.3105 28.415 20.2847 29.1382 19.5775C29.3003 19.4189 29.3032 19.1588 29.1446 18.9966C28.986 18.8345 28.7259 18.8317 28.5638 18.9902C28.125 19.4194 27.3346 20.3906 26.8273 22.1658C26.653 22.1961 26.4792 22.2289 26.306 22.2647C26.3296 21.9136 26.3106 21.5584 26.2534 21.2115C26.1734 20.7276 26.0166 20.2565 25.7903 19.8216ZM20.6241 24.7534C19.9198 24.2892 19.3978 23.582 19.1411 22.7361C18.5763 20.8753 19.5048 18.9402 21.2109 18.4223C22.7129 17.9664 24.2779 18.7877 25.0153 20.117C25.4051 20.8199 25.5677 21.651 25.4625 22.4485C25.4619 22.4534 25.4614 22.4582 25.4607 22.4631C24.9123 22.6074 24.3716 22.7816 23.8428 22.9861C23.5397 22.0445 22.963 20.6746 21.9731 19.7063C21.8109 19.5477 21.5509 19.5506 21.3922 19.7128C21.2336 19.8749 21.2365 20.135 21.3987 20.2936C22.2917 21.167 22.8131 22.4472 23.0825 23.3052C22.5889 23.5292 22.1086 23.7805 21.6454 24.062C21.4425 24.1853 20.6413 24.7648 20.6241 24.7534ZM16.9539 31.9684L15.2923 31.447L16.9539 30.9254C16.9496 30.984 16.9471 31.0426 16.9443 31.1013C16.9303 31.3898 16.9329 31.6802 16.9539 31.9684ZM19.0568 35.381C18.4522 34.521 18.0159 33.551 17.8423 32.4965C17.8417 32.4922 17.8417 32.4878 17.841 32.4835C17.7285 31.7982 17.7285 31.0953 17.841 30.41C17.8417 30.4056 17.8417 30.4012 17.8423 30.3969C18.1019 28.4492 19.4308 26.7367 20.9349 25.5514C20.9806 25.5154 21.1223 25.4071 21.1282 25.4026C21.1251 25.4089 21.0224 25.6143 20.9758 25.7115C20.1254 27.4861 19.682 29.4689 19.682 31.4467C19.682 33.5333 20.1698 35.6137 21.1192 37.473C21.1224 37.4793 21.1253 37.4857 21.1286 37.4919C20.3413 36.8995 19.6248 36.1888 19.0568 35.381ZM22.6641 38.4679C22.6264 38.413 22.5891 38.3578 22.5523 38.3022C22.2086 37.7825 21.904 37.2367 21.6427 36.6711C20.8879 35.0375 20.5034 33.2454 20.5034 31.4467C20.5034 29.1591 21.1381 26.8807 22.3364 24.9306C22.4087 24.813 22.6504 24.4463 22.6637 24.4267C22.6732 24.4217 22.6826 24.4166 22.6922 24.4116C23.5807 23.9398 24.5246 23.5732 25.4938 23.3054C25.5139 23.2999 25.534 23.2946 25.5541 23.2892C25.3478 23.5526 25.152 23.8242 24.9664 24.1026C23.5275 26.2605 22.7585 28.855 22.7585 31.4469C22.7585 34.1854 23.6115 36.9041 25.203 39.135C25.2424 39.1903 25.495 39.5296 25.5551 39.6063C24.528 39.3271 23.5598 38.9461 22.6641 38.4679ZM33.7748 39.64C32.5101 39.983 31.16 40.1569 29.7619 40.1569C28.7901 40.1569 27.8256 40.0725 26.8926 39.9058C25.9771 38.9243 25.2225 37.7927 24.6717 36.5686C23.908 34.8717 23.5401 33.0075 23.5834 31.148C23.633 29.0141 24.2406 26.8861 25.3366 25.0535C25.7794 24.313 26.3032 23.6203 26.8914 22.9893C26.9334 22.9818 26.9754 22.9744 27.0175 22.9672C28.3699 22.7368 29.754 22.6782 31.1211 22.7938C33.5731 23.0003 35.8214 23.7653 37.5844 25.0035C36.8243 25.0035 36.1018 25.2683 35.5272 25.7532C34.5183 24.8505 33.2248 24.356 31.8583 24.356C30.039 24.356 28.3232 25.241 27.2686 26.7232C26.2588 28.1419 25.7251 29.7752 25.7251 31.4466C25.7251 32.6621 26.0105 33.8668 26.5448 34.9576C27.9119 37.7484 30.7794 39.5039 33.8822 39.5039C33.9606 39.5039 34.2423 39.4964 34.2722 39.4949C34.1084 39.5462 33.9427 39.5945 33.7748 39.64Z" fill="#272727" stroke="black" stroke-width="0.25"/>
    </g>
    <path d="M43.3857 18.7949C43.415 18.2383 43.6055 17.7907 43.957 17.4521C44.3379 17.0843 44.8571 16.9004 45.5146 16.9004C46.1234 16.9004 46.623 17.0697 47.0137 17.4082C47.3945 17.7402 47.585 18.1602 47.585 18.668C47.585 19.3809 47.2448 19.9424 46.5645 20.3525C46.2585 20.5348 46.0485 20.709 45.9346 20.875C45.8239 21.0345 45.7686 21.2445 45.7686 21.5049V21.8223H44.9141V21.373C44.9108 20.7773 45.2363 20.2826 45.8906 19.8887C46.1771 19.7129 46.3789 19.5387 46.4961 19.3662C46.6165 19.1872 46.6768 18.9691 46.6768 18.7119C46.6768 18.4059 46.5677 18.1553 46.3496 17.96C46.1283 17.7614 45.8385 17.6621 45.4805 17.6621C45.1126 17.6621 44.818 17.763 44.5967 17.9648C44.3721 18.1667 44.2467 18.4434 44.2207 18.7949H43.3857ZM45.4072 24.0879C45.2087 24.0879 45.0459 24.0244 44.9189 23.8975C44.792 23.7705 44.7285 23.6077 44.7285 23.4092C44.7285 23.2106 44.792 23.0462 44.9189 22.916C45.0459 22.7891 45.2087 22.7256 45.4072 22.7256C45.6058 22.7256 45.7669 22.7891 45.8906 22.916C46.0176 23.043 46.0811 23.2074 46.0811 23.4092C46.0811 23.6077 46.0176 23.7705 45.8906 23.8975C45.7669 24.0244 45.6058 24.0879 45.4072 24.0879Z" fill="black"/>
    <path d="M40.27 13.3564C40.2905 12.9668 40.4238 12.6535 40.6699 12.4165C40.9365 12.159 41.3 12.0303 41.7603 12.0303C42.1864 12.0303 42.5361 12.1488 42.8096 12.3857C43.0762 12.6182 43.2095 12.9121 43.2095 13.2676C43.2095 13.7666 42.9714 14.1597 42.4951 14.4468C42.2809 14.5744 42.134 14.6963 42.0542 14.8125C41.9767 14.9242 41.938 15.0711 41.938 15.2534V15.4756H41.3398V15.1611C41.3376 14.7441 41.5654 14.3978 42.0234 14.1221C42.224 13.999 42.3652 13.8771 42.4473 13.7563C42.5316 13.631 42.5737 13.4784 42.5737 13.2983C42.5737 13.0841 42.4974 12.9087 42.3447 12.772C42.1898 12.633 41.987 12.5635 41.7363 12.5635C41.4788 12.5635 41.2726 12.6341 41.1177 12.7754C40.9604 12.9167 40.8727 13.1104 40.8545 13.3564H40.27ZM41.6851 17.0615C41.5461 17.0615 41.4321 17.0171 41.3433 16.9282C41.2544 16.8394 41.21 16.7254 41.21 16.5864C41.21 16.4474 41.2544 16.3324 41.3433 16.2412C41.4321 16.1523 41.5461 16.1079 41.6851 16.1079C41.8241 16.1079 41.9368 16.1523 42.0234 16.2412C42.1123 16.3301 42.1567 16.4451 42.1567 16.5864C42.1567 16.7254 42.1123 16.8394 42.0234 16.9282C41.9368 17.0171 41.8241 17.0615 41.6851 17.0615Z" fill="black"/>
    <path d="M43.1929 8.39746C43.2075 8.11914 43.3027 7.89535 43.4785 7.72607C43.6689 7.54215 43.9285 7.4502 44.2573 7.4502C44.5617 7.4502 44.8115 7.53483 45.0068 7.7041C45.1973 7.87012 45.2925 8.08008 45.2925 8.33398C45.2925 8.69043 45.1224 8.97119 44.7822 9.17627C44.6292 9.26742 44.5243 9.35449 44.4673 9.4375C44.4119 9.51725 44.3843 9.62223 44.3843 9.75244V9.91113H43.957V9.68652C43.9554 9.38867 44.1182 9.14128 44.4453 8.94434C44.5885 8.85645 44.6895 8.76937 44.748 8.68311C44.8083 8.59359 44.8384 8.48454 44.8384 8.35596C44.8384 8.20296 44.7839 8.07764 44.6748 7.97998C44.5641 7.8807 44.4193 7.83105 44.2402 7.83105C44.0563 7.83105 43.909 7.88151 43.7983 7.98242C43.686 8.08333 43.6234 8.22168 43.6104 8.39746H43.1929ZM44.2036 11.0439C44.1043 11.0439 44.0229 11.0122 43.9595 10.9487C43.896 10.8853 43.8643 10.8039 43.8643 10.7046C43.8643 10.6053 43.896 10.5231 43.9595 10.458C44.0229 10.3945 44.1043 10.3628 44.2036 10.3628C44.3029 10.3628 44.3835 10.3945 44.4453 10.458C44.5088 10.5215 44.5405 10.6037 44.5405 10.7046C44.5405 10.8039 44.5088 10.8853 44.4453 10.9487C44.3835 11.0122 44.3029 11.0439 44.2036 11.0439Z" fill="black"/>
    <defs>
        <clipPath id="clip0">
            <rect width="28" height="28" fill="white" transform="translate(14 15)"/>
        </clipPath>
    </defs>
</svg>
