<svg width="29" height="29" viewBox="0 0 29 29" fill="none" xmlns="http://www.w3.org/2000/svg">
    <path d="M25.5 15C25.5 20.799 20.799 25.5 15 25.5C9.20101 25.5 4.5 20.799 4.5 15C4.5 9.20101 9.20101 4.5 15 4.5C20.799 4.5 25.5 9.20101 25.5 15Z" fill="#ED1C24" stroke="white"/>
    <mask id="path-2-inside-1" fill="white">
        <path fill-rule="evenodd" clip-rule="evenodd" d="M20.5 14.5V15.5H9.5V14.5H20.5Z"/>
    </mask>
    <path fill-rule="evenodd" clip-rule="evenodd" d="M20.5 14.5V15.5H9.5V14.5H20.5Z" fill="#C02419"/>
    <path d="M20.5 14.5H21.5V13.5H20.5V14.5ZM20.5 15.5V16.5H21.5V15.5H20.5ZM9.5 15.5H8.5V16.5H9.5V15.5ZM9.5 14.5V13.5H8.5V14.5H9.5ZM19.5 14.5V15.5H21.5V14.5H19.5ZM20.5 14.5H9.5V16.5H20.5V14.5ZM10.5 15.5V14.5H8.5V15.5H10.5ZM9.5 15.5H20.5V13.5H9.5V15.5Z" fill="white" mask="url(#path-2-inside-1)"/>
</svg>
