<svg width="26" height="25" viewBox="0 0 26 25" fill="none" xmlns="http://www.w3.org/2000/svg">
    <path d="M18.1966 11.0558C17.9196 11.0558 17.655 10.9409 17.4659 10.7385L15.4146 8.54336C15.0418 8.14434 15.058 7.51996 15.4511 7.14084L19.8296 2.9178C19.9161 2.83436 20.0169 2.76719 20.1273 2.71953L20.7988 2.4295C21.4832 2.13394 21.6152 1.22047 21.0425 0.743243L20.4984 0.289782C19.9314 -0.18268 19.0655 0.100738 18.8876 0.816992L18.7131 1.51976C18.6662 1.70886 18.565 1.88012 18.422 2.0125L13.9387 6.1638C13.5445 6.52886 12.9322 6.51711 12.5522 6.13718L7.89229 1.47759C7.7641 1.34942 7.67317 1.18881 7.62921 1.01294L7.57947 0.813942C7.40067 0.098564 6.5355 -0.183849 5.96907 0.288262L5.5046 0.675387C4.91308 1.1684 5.07736 2.11691 5.80022 2.38229L6.17589 2.52021C6.30863 2.56894 6.42952 2.64527 6.5306 2.74416L11.0445 7.16057C11.4247 7.53256 11.4472 8.13709 11.0957 8.53627L9.1754 10.7167C8.98555 10.9323 8.71218 11.0558 8.42494 11.0558H1.00557C0.388744 11.0558 -0.0777216 11.6074 0.043909 12.2121C0.408934 14.0269 1.21637 17.4692 2.30223 18.7524C3.60869 20.2954 7.58736 22.6825 8.60988 23.2829C8.76016 23.3711 8.85149 23.531 8.85149 23.7053C8.85149 23.974 9.06929 24.1918 9.33797 24.1918H12.7805H13.0478H16.4904C16.759 24.1918 16.9768 23.974 16.9768 23.7053C16.9768 23.531 17.0682 23.3711 17.2185 23.2829C18.2413 22.6825 22.2213 20.2954 23.5266 18.7524C24.6129 17.4692 25.4199 14.0267 25.7847 12.2119C25.9062 11.6073 25.4398 11.0558 24.823 11.0558H18.1966ZM13.2544 11.0558C12.6503 11.0558 12.3309 10.341 12.7339 9.89103C13.0038 9.58972 13.4723 9.57977 13.7546 9.86936C14.1862 10.312 13.8726 11.0558 13.2544 11.0558Z" fill="#E9F0F9"/>
    <path d="M9.97894 5.53858L11.9533 7.65613C12.6292 8.3811 12.6638 9.47626 12.0767 10.2386C12.0944 10.2192 12.1128 10.2001 12.1318 10.1813C12.7454 9.29145 14.0409 9.30684 14.6568 10.1534C15.6799 11.0652 15.0427 12.7877 13.646 12.7877H13.2101C11.9205 12.7877 11.2537 11.3187 11.9804 10.3543C11.9468 10.3918 11.9115 10.4283 11.8745 10.4638L10.0305 12.2315C9.65817 12.5884 9.1623 12.7877 8.64648 12.7877H1.20412C1.38405 13.678 1.66653 14.9355 2.0303 16.12C2.41487 17.3722 2.8408 18.3698 3.23702 18.8381L9.97894 5.53858ZM9.97894 5.53858L12.0168 7.57625C12.7767 8.3361 14.0013 8.35961 14.7898 7.62948L15.56 6.91631L14.887 7.63029C14.1181 8.44611 14.1698 9.73453 15.0016 10.4861L16.9781 12.2717C17.3457 12.6039 17.8234 12.7877 18.3188 12.7877H24.9677C24.7879 13.6779 24.5055 14.9354 24.1419 16.1199C23.7573 17.3724 23.3313 18.37 22.935 18.8382L22.9348 18.8385C22.3847 19.4888 21.1777 20.4008 19.8802 21.2732C18.6184 22.1216 17.3874 22.8569 16.8839 23.1524C16.5809 23.3302 16.3564 23.6049 16.2395 23.9237H13.2195H12.9522H9.93204C9.81515 23.6049 9.5907 23.3303 9.28782 23.1525C8.78447 22.8569 7.55381 22.1217 6.29219 21.2732C4.99521 20.401 3.78811 19.4889 3.23719 18.8383L9.97894 5.53858ZM6.83066 1.98736L7.80082 1.74488L6.83067 1.98736C6.87359 2.15911 6.93892 2.32358 7.02439 2.47678C6.9124 2.40823 6.79356 2.35064 6.66947 2.30508L6.31646 2.17549L6.78093 1.78836L6.83066 1.98736ZM19.8359 2.56476C19.8428 2.5409 19.8493 2.51688 19.8553 2.49271L20.0298 1.78994L20.5739 2.2434L19.9251 2.52363C19.895 2.53662 19.8653 2.55034 19.8359 2.56476Z" stroke="#808080" stroke-width="2"/>
</svg>

