<svg width="13" height="13" viewBox="0 0 13 13" fill="none" xmlns="http://www.w3.org/2000/svg">
    <path fill-rule="evenodd" clip-rule="evenodd" d="M8.9983 8.00274C9.62724 7.16661 10 6.12684 10 5C10 2.23858 7.76142 0 5 0C2.23858 0 0 2.23858 0 5C0 7.76142 2.23858 10 5 10C6.12684 10 7.16661 9.62724 8.00274 8.9983C8.03883 9.07649 8.08909 9.14975 8.15354 9.2142L11.5929 12.6535C11.8858 12.9464 12.3606 12.9464 12.6535 12.6535C12.9464 12.3606 12.9464 11.8858 12.6535 11.5929L9.2142 8.15354C9.14975 8.08909 9.0765 8.03883 8.9983 8.00274ZM5 9C7.20914 9 9 7.20914 9 5C9 2.79086 7.20914 1 5 1C2.79086 1 1 2.79086 1 5C1 7.20914 2.79086 9 5 9Z" fill="#8C8C8C"/>
</svg>
