<svg width="30" height="28" viewBox="0 0 30 28" fill="none" xmlns="http://www.w3.org/2000/svg">
    <path d="M29.0691 12.4431C29.0603 11.9938 28.5846 11.7736 28.1354 11.7824L26.1357 11.8353C25.8274 10.5844 25.3605 9.62419 24.7439 8.69043L24.7527 8.65519L26.1269 7.18407C26.4352 6.85814 26.4176 6.34721 26.1005 6.03889L23.5723 3.63401C23.2463 3.32569 22.7354 3.3345 22.4359 3.66044L21.0793 5.11394C20.0839 4.54135 19.2118 4.13613 17.9433 3.9159V3.90709L17.8904 1.90743C17.8816 1.45817 17.4588 1.14985 17.0183 1.16747L13.5387 1.25556C13.0894 1.26437 12.9397 1.5903 12.9485 2.03957L13.0014 4.03923C11.7505 4.33874 10.7638 4.81443 9.82127 5.43107L9.76842 5.42226L8.2973 4.04804C7.97136 3.73972 7.45163 3.75734 7.14331 4.07447L4.73843 6.60267C4.43011 6.92861 4.43892 7.43954 4.76486 7.73905L6.21836 9.17493C5.64577 10.1704 5.24055 11.0689 5.02032 12.3902H5.01151L3.01185 12.4431C2.56259 12.4431 2.32474 12.7074 2.33355 13.1566L2.42164 16.6362C2.43045 17.0855 2.68591 17.3938 3.13518 17.3762L5.13484 17.3233C5.44316 18.5742 5.91004 19.4904 6.52667 20.4241L6.51787 20.4418L5.13484 21.8953C4.82652 22.2212 4.84414 22.7321 5.16127 23.0404L7.68947 25.4365C8.01541 25.7448 8.52634 25.7272 8.82585 25.4101L9.74199 24.5116L10.297 23.9654C10.8784 24.3001 11.4598 24.5732 12.094 24.7934C12.2173 24.8375 12.3583 24.8815 12.4904 24.9168C12.4904 24.9168 12.4904 24.9168 12.4992 24.9168C12.834 25.0137 13.204 25.093 13.5563 25.1634V25.1722L13.5739 26.1589L13.6004 27.1719C13.6092 27.6124 13.803 28.0088 14.2522 28L17.7318 27.9119C18.1723 27.9031 18.5599 27.489 18.5423 27.0486L18.5158 26.1589L18.4894 25.0489C18.7273 24.9872 18.9563 24.9256 19.1765 24.8551C19.3087 24.8111 19.4408 24.767 19.5729 24.7142C20.3041 24.4323 20.9207 24.0799 21.5638 23.6571V23.6659L21.925 24.0094L23.0173 25.0489C23.3432 25.3572 23.8453 25.3396 24.1537 25.0225L26.5497 22.4943C26.858 22.1683 26.8404 21.6574 26.5233 21.3579L25.061 19.9573C25.6336 18.9618 26.03 17.8431 26.259 16.786H26.2678L28.2675 16.7331C28.7168 16.7243 29.1748 16.372 29.166 15.9315L29.0691 12.4431Z" fill="#E9F0F9"/>
    <path d="M25.8073 10.6184L23.8087 10.6697C23.5013 9.41926 23.0298 8.45583 22.4149 7.52316L22.4251 7.48216L23.8087 6.01652C24.1162 5.6988 24.106 5.17609 23.778 4.86861L21.2567 2.4703C20.9288 2.16282 20.4266 2.17307 20.1191 2.50105L18.6022 3.95643C17.6081 3.38248 17.0751 2.98276 15.3021 2.75728V2.74703L15.4148 0.748433C15.4046 0.307717 15.0663 -0.0100082 14.6256 0.000241003L11.182 0.0924838C10.7413 0.102733 10.5978 0.430708 10.608 0.871423L10.6695 2.87002C9.41914 3.17749 8.42499 3.64896 7.49233 4.26391H7.44108L5.95498 2.87002C5.63726 2.56254 5.11456 2.57279 4.80709 2.90077L2.39857 5.42207C2.0911 5.73979 2.10135 6.25225 2.42932 6.55973L3.88468 8.01512C3.31074 9.00929 2.91102 9.77798 2.68555 11.2539H2.6753L0.676742 11.2846C0.236035 11.2949 -0.00994104 11.5511 0.000307964 11.9918L0.0823 15.4663C0.092549 15.907 0.348774 16.2145 0.789481 16.2042L2.78804 16.153C3.09551 17.4034 3.56696 18.3258 4.17165 19.2585L4.1614 19.279L2.77779 20.7344C2.47032 21.0624 2.48057 21.5748 2.80854 21.872L5.35029 24.2806C5.67826 24.5881 6.18046 24.5778 6.48793 24.2499L7.93304 22.7945C8.92719 23.3684 9.97259 23.7681 11.1615 23.9936V24.0039L11.2435 26.0025C11.2537 26.4432 11.4587 26.8429 11.9097 26.8327L15.3943 26.7404C15.835 26.7302 16.2245 26.3202 16.2142 25.8795L15.9683 23.8809C17.2186 23.5734 18.2538 23.1122 18.838 22.4972V22.5075L20.4881 23.8911C20.8058 24.1986 21.4207 24.1884 21.7282 23.8604L24.1777 21.3391C24.4852 21.0214 24.4954 20.5089 24.1675 20.2014L22.7223 18.6948C23.2963 17.7006 23.7063 17.1779 23.9317 15.4048H23.942L25.9405 15.4663C26.3812 15.456 26.8527 15.1691 26.8322 14.7181L26.74 11.2641C26.7297 10.8029 26.2583 10.6082 25.8073 10.6184ZM11.3972 18.0388C11.346 18.0183 11.2947 17.9978 11.2537 17.9773C11.1102 17.9056 10.9565 17.8339 10.8233 17.7519C10.7515 17.7109 10.6798 17.6699 10.6183 17.6289C10.5465 17.5879 10.485 17.5366 10.4133 17.4956C10.3825 17.4751 10.3518 17.4444 10.3108 17.4239C10.1263 17.2804 9.95209 17.1369 9.78811 16.9729C9.62412 16.8089 9.47039 16.6347 9.3269 16.4502C9.26541 16.3785 9.21416 16.2965 9.16292 16.2247C9.00918 15.989 8.8657 15.7533 8.75296 15.497C8.47623 14.9026 8.31225 14.2364 8.302 13.5292C8.261 12.0533 8.8657 10.7209 9.8496 9.77798C9.93159 9.69599 10.0238 9.61399 10.1161 9.54225C10.1468 9.5115 10.1776 9.491 10.2083 9.4705C10.2698 9.41926 10.3313 9.36801 10.403 9.32702C10.5978 9.18353 10.8028 9.06054 11.0282 8.9478C11.1 8.9068 11.1717 8.87605 11.2435 8.8453C11.8379 8.57882 12.4938 8.41484 13.1805 8.40459C14.0004 8.38409 14.7794 8.55833 15.4763 8.89655C15.548 8.9273 15.6198 8.96829 15.6915 9.00929C15.794 9.07079 15.9068 9.13228 16.0093 9.19378C16.081 9.23477 16.1425 9.28602 16.2142 9.32702C16.245 9.34751 16.2757 9.37826 16.3167 9.39876C16.3782 9.45001 16.4397 9.50125 16.5115 9.54225C16.6037 9.61399 16.6959 9.69599 16.7779 9.77798C16.8394 9.82923 16.8907 9.89072 16.9522 9.95222C17.0956 10.0957 17.2186 10.2494 17.3416 10.4134C17.3929 10.4749 17.4339 10.5467 17.4851 10.6082C17.5261 10.6799 17.5773 10.7414 17.6183 10.8132C17.6798 10.9156 17.7413 11.0181 17.7926 11.1309C18.1308 11.7766 18.3255 12.5145 18.346 13.2935C18.3563 13.7239 18.3153 14.1441 18.223 14.5541C18.2025 14.6361 18.182 14.7181 18.1615 14.7898C18.1308 14.9128 18.0898 15.0256 18.0488 15.1383C18.0181 15.2101 17.9873 15.2921 17.9566 15.3638C17.9361 15.415 17.9156 15.4663 17.8951 15.5073C17.8541 15.6098 17.8028 15.702 17.7516 15.7943C17.7106 15.866 17.6696 15.9378 17.6286 15.9992C17.5978 16.0505 17.5569 16.112 17.5261 16.1632C17.4954 16.2145 17.4646 16.2555 17.4339 16.3067C17.4134 16.3375 17.3826 16.3682 17.3621 16.4092C17.3109 16.4707 17.2596 16.5322 17.2186 16.604C17.1981 16.6347 17.1674 16.6654 17.1366 16.6962C17.0854 16.7577 17.0342 16.8192 16.9727 16.8704C16.9419 16.9012 16.9214 16.9319 16.8907 16.9524C16.7779 17.0652 16.6549 17.1779 16.532 17.2804C16.5012 17.3009 16.4705 17.3316 16.4397 17.3521C16.3782 17.4034 16.3167 17.4546 16.245 17.4956C16.1732 17.5366 16.1117 17.5879 16.04 17.6289C16.0093 17.6494 15.9683 17.6699 15.9375 17.6904C15.8658 17.7314 15.794 17.7724 15.7223 17.8134C15.0458 18.1823 14.2772 18.3976 13.4572 18.4181C12.7911 18.4386 12.1556 18.3258 11.5714 18.1003C11.5099 18.0798 11.4484 18.0593 11.3972 18.0388Z" fill="#808080"/>
    <circle cx="13.4613" cy="13.4613" r="8.9742" fill="#E9F0F9"/>
</svg>
