<svg width="29" height="28" viewBox="0 0 29 28" fill="none" xmlns="http://www.w3.org/2000/svg">
    <path d="M23.5976 1.10815H7.16718C4.43299 1.10815 2.21651 3.32469 2.21651 6.05883V16.8352C2.21651 19.5694 4.43305 21.7859 7.16718 21.7859H9.52517C9.63735 21.7859 9.72826 21.8768 9.72826 21.9889V27.3047C9.72826 27.9332 10.497 28.2379 10.9276 27.78L16.5049 21.8497C16.5433 21.8089 16.5968 21.7858 16.6529 21.7858H23.5975C26.3318 21.7858 28.5482 19.5692 28.5482 16.8351V6.05888C28.5484 3.32464 26.3318 1.10815 23.5976 1.10815Z" fill="#E9F0F9"/>
    <path d="M12.2062 7.83039L12.2063 7.83049C12.727 8.35104 13.5713 8.35118 14.0921 7.83039L14.8022 7.12037C15.7076 6.21489 17.1757 6.21489 18.0812 7.12037C18.9866 8.02584 18.9866 9.4939 18.0812 10.3994L18.0811 10.3994L13.1496 15.3318L8.22857 10.4107C7.32309 9.50527 7.32309 8.0372 8.22857 7.13173C9.13404 6.22625 10.6021 6.22625 11.5076 7.13173L12.2062 7.83039Z" stroke="#808080" stroke-width="1.8"/>
    <path d="M25.3317 4.95067V4.95073V15.7269C25.3317 17.9088 23.563 19.6776 21.381 19.6776H14.4364C14.1048 19.6776 13.7875 19.8144 13.5599 20.0565L8.51175 25.4241V20.8808C8.51175 20.2166 7.9733 19.6777 7.30866 19.6777H4.95067C2.76881 19.6777 1 17.909 1 15.727V4.95067C1 2.76882 2.76878 1 4.95067 1H21.3811C23.5631 1 25.3318 2.76878 25.3317 4.95067Z" stroke="#808080" stroke-width="2"/>
</svg>
