<svg width="52" height="52" viewBox="0 0 52 52" fill="none" xmlns="http://www.w3.org/2000/svg">
<path d="M19.5892 25.5484H22.3296V36.8163C22.3296 37.0387 22.5101 37.219 22.7328 37.219H27.3793C27.602 37.219 27.7825 37.0387 27.7825 36.8163V25.6015H30.9328C31.1377 25.6015 31.31 25.4479 31.3334 25.2447L31.8119 21.0965C31.825 20.9824 31.7889 20.868 31.7124 20.7824C31.6359 20.6967 31.5264 20.6477 31.4114 20.6477H27.7827V18.0473C27.7827 17.2635 28.2053 16.8659 29.0389 16.8659C29.1577 16.8659 31.4114 16.8659 31.4114 16.8659C31.6342 16.8659 31.8146 16.6856 31.8146 16.4632V12.6555C31.8146 12.433 31.6342 12.2527 31.4114 12.2527H28.1416C28.1186 12.2516 28.0674 12.2498 27.9919 12.2498C27.4245 12.2498 25.4525 12.361 23.8948 13.7923C22.1688 15.3784 22.4087 17.2775 22.4661 17.6068V20.6476H19.5892C19.3664 20.6476 19.186 20.8278 19.186 21.0503V25.1456C19.186 25.368 19.3665 25.5484 19.5892 25.5484Z" fill="#385C8E"/>
</svg>
