<svg width="21" height="20" viewBox="0 0 21 20" fill="none" xmlns="http://www.w3.org/2000/svg">
<path d="M20.6303 17.3568L19.5435 18.9963C19.5328 19.0092 19.5257 19.0222 19.515 19.0351C19.3417 19.1339 19.1532 19.209 18.9556 19.2578C17.1525 19.7064 13.1723 19.8 6.79392 14.0195C0.415563 8.23902 0.515363 4.63715 1.01069 3.00401C1.06456 2.82503 1.14741 2.65427 1.25656 2.4973C1.2708 2.48762 1.28508 2.48115 1.29932 2.47147L3.10948 1.48706C3.52284 1.26289 4.05767 1.37227 4.32458 1.7356L5.89601 3.86576L7.21088 5.65382C7.46769 6.01177 7.38292 6.48777 7.01491 6.75441L5.82118 7.59358L5.39358 7.89374C5.04357 8.14034 4.94247 8.58041 5.15485 8.93299C5.63235 9.70759 6.08133 10.621 8.31194 12.6446C10.5426 14.6683 11.5546 15.0717 12.4098 15.5042C12.7991 15.6966 13.2849 15.605 13.5571 15.288L13.8885 14.9007L14.815 13.8194C15.1094 13.4861 15.6349 13.4093 16.0301 13.6419L18.0647 14.8716L20.3559 16.2562C20.7571 16.4979 20.8778 16.9824 20.6303 17.3568Z" fill="#E1E9F4"/>
<path d="M15.7235 18.5402C16.2218 18.5423 16.7182 18.4801 17.1993 18.3553C17.759 18.2048 18.2362 17.8521 18.5306 17.3713L19.4896 15.8425C19.795 15.3557 19.6472 14.7246 19.1539 14.41L15.3401 11.9703C14.8561 11.6632 14.2073 11.7643 13.8495 12.2025L12.7386 13.5727C12.5958 13.7532 12.3363 13.8056 12.1298 13.6956L11.9185 13.5838C11.2179 13.2175 10.3463 12.7616 8.59009 11.0764C6.8339 9.3912 6.35757 8.55447 5.97573 7.88374L5.85986 7.68103C5.74354 7.48295 5.79712 7.23295 5.98544 7.09491L7.4129 6.0296C7.86962 5.68635 7.97511 5.06422 7.65531 4.59983L5.11193 0.941526C4.78411 0.468628 4.12655 0.326668 3.61916 0.619237L2.02436 1.53817C1.52326 1.82075 1.15563 2.2784 0.99854 2.81522C0.424255 4.82237 0.856284 8.2864 6.17605 13.3898C10.4078 17.4487 13.5582 18.5402 15.7235 18.5402ZM1.60425 2.97458C1.71891 2.58745 1.98524 2.25782 2.34747 2.05473L3.94227 1.137C4.16243 1.00993 4.44782 1.07152 4.59004 1.27673L5.97164 3.26641L7.13125 4.93471C7.27012 5.13615 7.2245 5.40613 7.02638 5.55518L5.59864 6.62049C5.16414 6.93918 5.04006 7.51581 5.30758 7.97346L5.42095 8.17105C5.82225 8.87704 6.32118 9.75531 8.14268 11.5023C9.96419 13.2492 10.8795 13.7278 11.6152 14.1127L11.8215 14.2217C12.2986 14.4783 12.8997 14.3593 13.232 13.9425L14.3426 12.573C14.498 12.3831 14.7793 12.3393 14.9894 12.4724L18.8029 14.9121C19.017 15.0484 19.0812 15.3223 18.9486 15.5334L17.9918 17.0632C17.7804 17.4102 17.4372 17.6654 17.0341 17.7752C15.1024 18.2839 11.7276 17.8626 6.62037 12.9637C1.51318 8.06474 1.0739 4.8278 1.60425 2.97458Z" fill="#8A8A8F" stroke="#8A8A8F" stroke-width="0.6"/>
</svg>
