<svg width="17" height="20" viewBox="0 0 17 20" fill="none" xmlns="http://www.w3.org/2000/svg">
<path d="M16.5468 17.9441L15.8109 12.9149C15.5593 11.1906 13.8748 9.91553 11.8789 9.91553H6.45328C4.45738 9.91553 2.77241 11.1906 2.52122 12.9149L1.78487 17.9535C1.73418 18.3059 1.85864 18.7489 2.12793 19.0145C2.39767 19.2806 2.78553 19.5218 3.19286 19.5218H15.1388C15.5462 19.5218 15.934 19.2758 16.2042 19.0098C16.4735 18.743 16.598 18.2968 16.5468 17.9441Z" fill="#E1E9F4"/>
<path d="M9.16512 8.76205C11.4972 8.76205 13.3877 7.11567 13.3877 5.08476C13.3877 3.05385 11.4972 1.40747 9.16512 1.40747C6.83303 1.40747 4.9425 3.05385 4.9425 5.08476C4.9425 7.11567 6.83303 8.76205 9.16512 8.76205Z" fill="#E1E9F4"/>
<path d="M14.2244 12.1424L14.2244 12.1426L14.9602 17.171C14.9602 17.1712 14.9602 17.1714 14.9603 17.1716C14.9859 17.3499 14.9097 17.5901 14.7968 17.7025C14.5782 17.9174 14.3404 18.034 14.1707 18.034H2.22475C2.05128 18.034 1.81272 17.9179 1.5987 17.7068C1.48594 17.5955 1.40996 17.3582 1.43531 17.1803C1.43534 17.1801 1.43536 17.1799 1.43539 17.1798L2.17155 12.1425L2.17159 12.1422C2.36846 10.7907 3.72825 9.67773 5.48517 9.67773H10.9108C12.6675 9.67773 14.0271 10.7906 14.2244 12.1424Z" stroke="#8A8A8F" stroke-width="1.25"/>
<path d="M11.7947 4.22223C11.7947 5.82961 10.268 7.27454 8.1971 7.27454C6.12624 7.27454 4.59949 5.82961 4.59949 4.22223C4.59949 2.61484 6.12624 1.16992 8.1971 1.16992C10.268 1.16992 11.7947 2.61484 11.7947 4.22223Z" stroke="#8A8A8F" stroke-width="1.25"/>
</svg>
