<svg width="130" height="111" viewBox="0 0 130 111" fill="none" xmlns="http://www.w3.org/2000/svg">
<path d="M101.509 9.24902H44.5304L16.039 60.004L44.5304 110.759H101.509L130 60.004L101.509 9.24902Z" fill="#E1E9F4"/>
<path d="M89.2428 106.164H32.3134C30.9281 106.164 29.6507 105.438 28.9658 104.263L0.502144 55.3812C-0.167381 54.2323 -0.167381 52.8257 0.502144 51.6769L28.9658 2.79477C29.6507 1.62012 30.9281 0.894287 32.3134 0.894287H89.2428C90.6281 0.894287 91.9077 1.62012 92.5904 2.79477L121.056 51.6769C121.726 52.8257 121.726 54.2323 121.056 55.3812L92.5904 104.263C91.9077 105.436 90.6281 106.164 89.2428 106.164ZM34.5554 98.6563H87.0052L113.284 53.528L87.0052 8.39958H34.5554L8.27436 53.528L34.5554 98.6563Z" fill="#5C5C5C"/>
<path d="M59.4978 51.6676L61.3637 45.4115L63.2296 51.6676H59.4978Z" fill="#10A7EC" stroke="#7C6866" stroke-width="0.25"/>
<path d="M65.4636 58.7641H57.2626C57.4599 58.3637 57.6233 57.951 57.7495 57.5278L57.7495 57.5278L58.5382 54.8833H64.188L64.9767 57.5277C65.103 57.951 65.2663 58.3637 65.4636 58.7641Z" fill="#5C5C5C" stroke="#7C6866" stroke-width="0.25"/>
<path d="M74.6168 61.4972C71.7832 60.6824 69.8082 58.9719 69.1674 56.8234L65.3215 43.9282H69.86L82.7144 49.9709C85.2722 51.1733 86.7482 53.1273 86.805 55.3195C86.8615 57.5109 85.4884 59.5032 82.9958 60.7751C80.5034 62.0469 77.4488 62.3117 74.6168 61.4972Z" fill="#5C5C5C" stroke="#7C6866" stroke-width="0.25"/>
<path d="M73.1062 64.3778L73.0717 64.4979C73.3725 64.5844 73.6763 64.6611 73.9814 64.7303C73.8056 65.1166 73.6189 65.4935 73.4222 65.8608H49.3062C49.1094 65.4935 48.9227 65.1166 48.7468 64.7302C49.052 64.6611 49.3556 64.5844 49.6564 64.4979C51.5873 63.9427 53.2792 63.0747 54.6301 61.98H68.0981C69.449 63.0746 71.1407 63.9427 73.0717 64.4979L73.1062 64.3778Z" fill="#10A7EC" stroke="#7C6866" stroke-width="0.25"/>
<path d="M59.4663 73.8072V73.7014L59.362 73.6839C56.3342 73.1769 53.6254 71.5294 51.5028 69.0762H71.224C69.1014 71.5294 66.3927 73.177 63.3649 73.6839L63.2606 73.7014V73.8072V76.6846H59.4663V73.8072Z" fill="#5C5C5C" stroke="#7C6866" stroke-width="0.25"/>
<path d="M65.9781 31.852L65.9492 31.9624L66.0565 32.0012C69.5882 33.2771 71.9904 35.9297 71.9904 38.9592C71.9904 39.5618 71.8935 40.1483 71.7137 40.7125H51.0147C50.8349 40.1482 50.7379 39.5618 50.7379 38.9592C50.7379 35.9296 53.1401 33.2771 56.6717 32.0012L56.7791 31.9624L56.7502 31.852C56.3342 30.2602 54.471 29.0839 52.2674 29.0409V26.3249C56.2652 26.3671 59.5692 28.4333 60.4165 31.1388L60.4456 31.2317L60.5428 31.2262C60.8149 31.2109 61.088 31.2007 61.364 31.2007C61.64 31.2007 61.9133 31.2109 62.1854 31.2262L62.2826 31.2317L62.3117 31.1388C63.1591 28.4333 66.4629 26.3671 70.4608 26.3249V29.0409C68.2572 29.0839 66.3939 30.2602 65.9781 31.852Z" fill="#5C5C5C" stroke="#7C6866" stroke-width="0.25"/>
<path d="M53.6795 56.859L53.5597 56.8233C52.9189 58.9718 50.9439 60.6824 48.1104 61.4971L48.1449 61.6173L48.1104 61.4971C45.2782 62.3116 42.2238 62.0469 39.7313 60.775C37.2387 59.503 35.8656 57.5108 35.9223 55.3194C35.9789 53.1272 37.4548 51.1732 40.0127 49.9708L52.8673 43.9282H57.4057L53.5597 56.8233L53.6795 56.859Z" fill="#5C5C5C" stroke="#7C6866" stroke-width="0.25"/>
</svg>
