<svg width="54" height="50" viewBox="0 0 54 50" fill="none" xmlns="http://www.w3.org/2000/svg">
    <path d="M37.8547 24.8896C37.5777 24.8896 37.3132 24.7748 37.1241 24.5724L32.3358 19.4483C31.963 19.0493 31.9792 18.4249 32.3723 18.0458L41.4798 9.26157C41.5663 9.17812 41.6672 9.11096 41.7775 9.0633L44.5624 7.86056C45.2467 7.56499 45.3787 6.65152 44.8061 6.1743L41.525 3.44005C40.958 2.96759 40.0921 3.25101 39.9142 3.96726L39.1677 6.9735C39.1207 7.1626 39.0196 7.33386 38.8766 7.46624L29.4915 16.1564C29.0972 16.5215 28.4849 16.5097 28.105 16.1298L18.4273 6.45289C18.2991 6.32471 18.2082 6.1641 18.1642 5.98824L17.6583 3.96421C17.4795 3.24883 16.6143 2.96642 16.0479 3.43853L12.8465 6.10684C12.255 6.59985 12.4192 7.54836 13.1421 7.81374L15.5153 8.685C15.648 8.73373 15.7689 8.81006 15.87 8.90895L25.2288 18.0655C25.609 18.4375 25.6315 19.042 25.2799 19.4412L20.7802 24.5506C20.5904 24.7661 20.317 24.8896 20.0297 24.8896H4.40954C3.79271 24.8896 3.32497 25.4379 3.43888 26.0441C3.99564 29.0069 5.64276 36.8374 7.94832 39.5619C10.4389 42.5034 18.0235 47.054 19.9728 48.1985C20.2593 48.3667 20.4334 48.6716 20.4334 49.0038C20.4334 49.516 20.8486 49.9312 21.3608 49.9312H27.9235H28.433H34.9956C35.5078 49.9312 35.923 49.516 35.923 49.0039C35.923 48.6716 36.0971 48.3667 36.3837 48.1985C38.3335 47.0541 45.9207 42.5034 48.4091 39.5619C50.7154 36.8374 52.3615 29.0066 52.9178 26.044C53.0316 25.4378 52.5639 24.8896 51.9471 24.8896H37.8547ZM28.0841 24.8896C27.2195 24.8896 26.7623 23.8666 27.3391 23.2225L28.0715 22.4047C28.4577 21.9734 29.1283 21.9592 29.5325 22.3736L30.3299 23.1915C30.9477 23.825 30.4988 24.8896 29.614 24.8896H28.0841Z" fill="#E9F0F9"/>
    <path d="M37.633 6.1814L38.3607 6.86731L37.633 6.18141L28.5283 15.8411C27.7593 16.6569 27.811 17.9454 28.6429 18.6969L33.3562 22.9553C33.7238 23.2874 34.2016 23.4713 34.697 23.4713H48.821C48.5437 24.945 48.0021 27.5899 47.2505 30.1969C46.8721 31.5096 46.4449 32.7967 45.9776 33.9123C45.5043 35.0422 45.016 35.9322 44.5375 36.4975L44.5373 36.4977C43.3956 37.8473 40.9911 39.6499 38.5281 41.3059C36.1007 42.9381 33.7361 44.3502 32.7691 44.9178C32.1969 45.2536 31.8405 45.855 31.816 46.5129H25.3247H24.8151H18.3237C18.2992 45.855 17.9429 45.2537 17.3708 44.9178C16.4041 44.3502 14.0402 42.9381 11.6132 41.3059C9.1509 39.65 6.74629 37.8474 5.60333 36.4976C5.12498 35.9323 4.63666 35.0423 4.16338 33.9123C3.69613 32.7968 3.26887 31.5096 2.89031 30.1969C2.13849 27.59 1.59657 24.945 1.31903 23.4713H16.9713C17.4872 23.4713 17.983 23.272 18.3554 22.9151L22.7788 18.6746C23.5683 17.9177 23.6034 16.6669 22.8576 15.867L13.5025 5.83321L12.7711 6.51515L13.5025 5.83321C13.2885 5.60369 13.0235 5.42775 12.7289 5.31961L10.3784 4.45667L13.5798 1.78836L14.0857 3.81239C14.1736 4.16412 14.3555 4.48534 14.6119 4.74169L24.2895 14.4186C25.0495 15.1785 26.274 15.202 27.0625 14.4718L36.4477 5.78166C36.7336 5.51689 36.936 5.17437 37.0299 4.79619L36.0594 4.55516L37.0299 4.79618L37.7764 1.78994L41.0575 4.52418L38.2954 5.71712C38.0453 5.82515 37.8199 5.98315 37.633 6.1814ZM23.9497 19.9948L23.9497 19.9948L23.9495 19.9951C22.623 21.2173 23.4596 23.4713 25.2988 23.4713H26.1378C27.9942 23.4713 28.8236 21.1424 27.3872 19.9688L27.3477 19.9087C27.3477 19.9087 27.3477 19.9087 27.3477 19.9087C26.5576 18.708 24.7966 18.708 24.0064 19.9087C24.0064 19.9087 24.0064 19.9087 24.0064 19.9087L23.9497 19.9948Z" stroke="#2D2D2D" stroke-width="2"/>
</svg>
