<svg width="49" height="49" viewBox="0 0 24 24" fill="none" xmlns="http://www.w3.org/2000/svg">
  <path d="M12.9996 6.25537L5.15341 14.3834C5.15341 14.3949 5.15112 14.4117 5.14653 14.4347C5.14204 14.4576 5.13965 14.4741 5.13965 14.4859V22.7164C5.13965 23.0136 5.22611 23.2711 5.39899 23.488C5.57181 23.705 5.77647 23.8141 6.01301 23.8141H11.2528V17.2296H14.7465V23.8144H19.9862C20.2227 23.8144 20.4277 23.7054 20.6002 23.488C20.7731 23.2713 20.8599 23.0136 20.8599 22.7164V14.4859C20.8599 14.4403 20.8549 14.4058 20.8461 14.3834L12.9996 6.25537Z" fill="#E1E9F4"/>
  <path d="M8.25279 21.8141H4.15253C4.14477 21.7914 4.13965 21.7608 4.13965 21.7164V13.8016L10.9996 6.69519L17.8599 13.8016V21.7164C17.8599 21.761 17.8547 21.7916 17.8468 21.8144H13.7465V16.2296V15.2296H12.7465H9.25279H8.25279V16.2296V21.8141Z" stroke="#808080" stroke-width="2"/>
  <path d="M18.1365 8.28666L18.1377 8.28793L20.9071 11.1801L20.6491 11.5668L11.7401 1.7716L11.0395 1.00126C11.1398 1.00806 11.222 1.04375 11.3188 1.14154L18.1365 8.28666ZM10.2606 1.77158L1.35101 11.567L1.09275 11.1796L10.6813 1.14188C10.7785 1.04372 10.861 1.00805 10.9612 1.00126L10.2606 1.77158Z" stroke="#808080" stroke-width="2"/>
</svg>
