<svg width="165" height="48" viewBox="0 0 165 48" fill="none" xmlns="http://www.w3.org/2000/svg">
    <g clip-path="url(#clip0)">
        <path d="M66.1108 29.4176H44.8917C44.01 29.4176 43.2953 30.1393 43.2953 31.0295V32.955C43.2953 33.8453 44.01 34.5669 44.8917 34.5669H66.1108C66.9924 34.5669 67.7071 33.8453 67.7071 32.955V31.0295C67.7071 30.1393 66.9924 29.4176 66.1108 29.4176Z" fill="#FDD835"/>
        <path d="M70.4037 22.9873H40.5963C39.7147 22.9873 39 23.709 39 24.5992V26.5247C39 27.4149 39.7147 28.1366 40.5963 28.1366H70.4037C71.2853 28.1366 72 27.4149 72 26.5247V24.5992C72 23.709 71.2853 22.9873 70.4037 22.9873Z" fill="#FDD835"/>
        <path d="M70.4037 16.5542H40.5963C39.7147 16.5542 39 17.2759 39 18.1661V20.0916C39 20.9818 39.7147 21.7035 40.5963 21.7035H70.4037C71.2853 21.7035 72 20.9818 72 20.0916V18.1661C72 17.2759 71.2853 16.5542 70.4037 16.5542Z" fill="#FDD835"/>
        <path d="M66.1108 10.1211H44.8917C44.01 10.1211 43.2953 10.8428 43.2953 11.733V13.6585C43.2953 14.5487 44.01 15.2704 44.8917 15.2704H66.1108C66.9924 15.2704 67.7071 14.5487 67.7071 13.6585V11.733C67.7071 10.8428 66.9924 10.1211 66.1108 10.1211Z" fill="#FDD835"/>
        <path d="M48.9173 36.5023L55.5 41L62.0826 36.5023C62.1462 36.4601 62.1944 36.3983 62.2202 36.3261C62.246 36.2539 62.248 36.1752 62.2257 36.1018C62.2035 36.0284 62.1583 35.9643 62.0969 35.919C62.0355 35.8737 61.9612 35.8498 61.8852 35.8507H49.1123C49.0374 35.852 48.9647 35.8773 48.9049 35.9229C48.845 35.9685 48.8011 36.0322 48.7794 36.1047C48.7577 36.1772 48.7594 36.2547 48.7842 36.3262C48.809 36.3976 48.8556 36.4593 48.9173 36.5023Z" fill="#3E2723"/>
        <path d="M59.7182 3.68818H59.1019L61.1918 1.57789C61.3673 1.67122 61.5702 1.69782 61.7636 1.65283C61.9569 1.60785 62.1279 1.49427 62.2453 1.33277C62.3627 1.17127 62.4188 0.972569 62.4034 0.772826C62.3879 0.573084 62.302 0.38557 62.1612 0.244399C62.0204 0.103229 61.8341 0.0177839 61.6362 0.00360896C61.4383 -0.0105659 61.2419 0.0474715 61.0828 0.167162C60.9237 0.286853 60.8124 0.460243 60.7692 0.655788C60.726 0.851332 60.7538 1.05604 60.8475 1.23266L58.4133 3.68818H52.5866L50.1524 1.23266C50.247 1.05506 50.2753 0.849076 50.2321 0.652212C50.1888 0.455348 50.077 0.280707 49.917 0.1601C49.757 0.0394941 49.5594 -0.0190525 49.3602 -0.00487514C49.161 0.00930222 48.9734 0.0952602 48.8317 0.237341C48.69 0.379423 48.6036 0.568173 48.5882 0.769212C48.5727 0.97025 48.6293 1.1702 48.7476 1.33264C48.8659 1.49508 49.0381 1.6092 49.2328 1.65421C49.4274 1.69923 49.6316 1.67214 49.8081 1.57789L51.898 3.68818H51.2792C50.8427 3.6885 50.4106 3.77579 50.0075 3.94506C49.6045 4.11433 49.2385 4.36224 48.9305 4.67459C48.6225 4.98694 48.3786 5.3576 48.2127 5.76531C48.0468 6.17302 47.9622 6.60978 47.9638 7.05055V7.9501C47.9638 8.06823 47.9869 8.18521 48.0316 8.29434C48.0764 8.40348 48.142 8.50265 48.2248 8.58618C48.3075 8.66971 48.4057 8.73597 48.5138 8.78118C48.6218 8.82638 48.7377 8.84965 48.8547 8.84965H62.1476C62.3835 8.84901 62.6094 8.75395 62.776 8.58532C62.9425 8.41669 63.0361 8.18826 63.0361 7.9501V7.05055C63.0376 6.60957 62.953 6.17262 62.787 5.76475C62.6209 5.35688 62.3768 4.98612 62.0686 4.67373C61.7603 4.36135 61.394 4.11348 60.9907 3.94436C60.5874 3.77524 60.155 3.68818 59.7182 3.68818Z" fill="#3E2723"/>
    </g>
    <path d="M8.25 21.0801H14.6523C16.4141 21.0801 17.7819 20.6146 18.7559 19.6836C19.7155 18.7526 20.1953 17.4492 20.1953 15.7734C20.1953 14.1406 19.694 12.8516 18.6914 11.9062C17.6745 10.9609 16.2852 10.4883 14.5234 10.4883H8.25V21.0801ZM8.25 37H2.70703V5.99805H15.168C18.5052 5.99805 21.1335 6.86458 23.0527 8.59766C24.9434 10.3164 25.8887 12.6654 25.8887 15.6445C25.8887 17.7214 25.3802 19.5404 24.3633 21.1016C23.3177 22.7057 21.8783 23.8372 20.0449 24.4961L26.8125 37H20.4746L14.3945 25.334H8.25V37ZM30.3581 13.5176H35.7077V37H30.3581V13.5176ZM33.0222 10.5312C32.1915 10.5312 31.4825 10.2448 30.8952 9.67188C30.308 9.09896 30.0144 8.4043 30.0144 7.58789C30.0144 6.75716 30.308 6.05534 30.8952 5.48242C31.4825 4.92383 32.1915 4.64453 33.0222 4.64453C33.8672 4.64453 34.5762 4.92383 35.1491 5.48242C35.7364 6.05534 36.03 6.75716 36.03 7.58789C36.03 8.41862 35.7364 9.11328 35.1491 9.67188C34.5762 10.2448 33.8672 10.5312 33.0222 10.5312Z" fill="black"/>
    <path d="M74.2559 13.5176H79.3906V17.5996H79.498C80.916 14.6921 83.444 13.2383 87.082 13.2383C89.6888 13.2383 91.737 14.0117 93.2266 15.5586C94.7161 17.1055 95.4609 19.2396 95.4609 21.9609V37H90.1113V23.0137C90.1113 21.3379 89.6745 20.0417 88.8008 19.125C87.9271 18.2227 86.6882 17.7715 85.084 17.7715C83.4368 17.7715 82.112 18.3014 81.1094 19.3613C80.1068 20.4212 79.6055 21.8105 79.6055 23.5293V37H74.2559V13.5176ZM106.182 25.5703C106.182 27.7188 106.805 29.4303 108.051 30.7051C109.341 32.0228 111.117 32.6816 113.38 32.6816C115.643 32.6816 117.419 32.0228 118.708 30.7051C119.968 29.4303 120.598 27.7188 120.598 25.5703V5.99805H126.12V26.0645C126.12 29.4876 124.981 32.2448 122.704 34.3359C120.384 36.4557 117.275 37.5156 113.38 37.5156C109.498 37.5156 106.397 36.4557 104.077 34.3359C101.785 32.2448 100.639 29.4876 100.639 26.0645V5.99805H106.182V25.5703ZM144.189 13.2598C147.182 13.2598 149.56 14.3411 151.322 16.5039C153.083 18.6667 153.964 21.5885 153.964 25.2695C153.964 28.9362 153.091 31.8509 151.343 34.0137C149.596 36.1764 147.24 37.2578 144.275 37.2578C140.794 37.2578 138.338 35.8757 136.906 33.1113H136.798V44.541H131.449V13.5176H136.669V17.4707H136.777C137.421 16.1816 138.41 15.1576 139.742 14.3984C141.074 13.6393 142.556 13.2598 144.189 13.2598ZM142.621 32.8105C144.397 32.8105 145.815 32.1302 146.874 30.7695C147.949 29.3945 148.486 27.5612 148.486 25.2695C148.486 22.9779 147.949 21.1445 146.874 19.7695C145.815 18.3945 144.397 17.707 142.621 17.707C140.873 17.707 139.462 18.4017 138.388 19.791C137.314 21.1803 136.777 23.0065 136.777 25.2695C136.777 27.5326 137.314 29.3587 138.388 30.748C139.462 32.123 140.873 32.8105 142.621 32.8105Z" fill="black"/>
    <defs>
        <clipPath id="clip0">
            <rect width="33" height="41" fill="white" transform="translate(39)"/>
        </clipPath>
    </defs>
</svg>
