<svg width="35" height="47" viewBox="0 0 35 47" fill="none" xmlns="http://www.w3.org/2000/svg">
    <path d="M34.7803 17.3394C34.7803 22.3211 31.7119 25.0103 28.8091 29.6128C27.1094 32.6811 22.5597 47 18.9272 47C15.2946 47 11.512 32.9368 9.55667 29.6128C6.39815 25.266 3.58551 22.3211 3.58551 17.3394C3.58551 8.72525 10.5687 1.74207 19.1829 1.74207C27.7971 1.74207 34.7803 8.72525 34.7803 17.3394Z" fill="#E9F0F9"/>
    <path d="M24.4823 27.3372L24.4671 27.3613L24.4533 27.3862C23.9918 28.2193 23.3614 29.7617 22.6516 31.5048C22.6221 31.5773 22.5924 31.6503 22.5625 31.7238C21.8594 33.451 21.0574 35.4209 20.2018 37.3007C19.306 39.2687 18.3733 41.0883 17.4619 42.4029C17.0053 43.0615 16.5816 43.5525 16.2025 43.8696C15.8146 44.194 15.5683 44.2579 15.4462 44.2579C15.3245 44.2579 15.0922 44.1979 14.7327 43.8888C14.3779 43.5839 13.984 43.1076 13.5615 42.4614C12.7178 41.171 11.8718 39.3792 11.0545 37.425C10.4142 35.8938 9.80703 34.3018 9.24055 32.8165C9.08642 32.4123 8.93529 32.0161 8.78733 31.6311C8.11146 29.8725 7.47756 28.2816 6.93758 27.3637L6.91306 27.322L6.88463 27.2829C6.42625 26.652 5.98252 26.058 5.55839 25.4902C2.96524 22.0188 1.10449 19.5278 1.10449 15.5974C1.10449 7.53547 7.63996 1 15.7019 1C23.7638 1 30.2992 7.53547 30.2992 15.5974C30.2992 17.8516 29.6147 19.5906 28.5463 21.3591C28.0041 22.2566 27.3708 23.1493 26.6711 24.1318L26.6269 24.194C25.9456 25.1506 25.2095 26.1842 24.4823 27.3372Z" stroke="#2D2D2D" stroke-width="2"/>
    <circle cx="15.7711" cy="15.6676" r="7.70345" stroke="#2D2D2D" stroke-width="2"/>
</svg>
