<svg width="52" height="49" viewBox="0 0 52 49" fill="none" xmlns="http://www.w3.org/2000/svg">
    <path d="M50.9543 21.775C50.9388 20.9888 50.1064 20.6034 49.3202 20.6188L45.8207 20.7113C45.2812 18.5222 44.4641 16.8419 43.385 15.2078L43.4004 15.1461L45.8053 12.5716C46.3449 12.0012 46.314 11.1071 45.7591 10.5676L41.3347 6.35899C40.7643 5.81943 39.8702 5.83485 39.346 6.40524L36.972 8.94887C35.23 7.94684 33.7038 7.2377 31.4839 6.8523V6.83689L31.3914 3.33746C31.376 2.55124 30.636 2.01168 29.8652 2.04252L23.7759 2.19668C22.9897 2.21209 22.7276 2.78248 22.743 3.5687L22.8355 7.06813C20.6464 7.59227 18.9199 8.42473 17.2703 9.50385L17.1778 9.48843L14.6034 7.08354C14.033 6.54398 13.1234 6.57481 12.5839 7.12979L8.37533 11.5542C7.83577 12.1246 7.85118 13.0187 8.42157 13.5428L10.9652 16.0556C9.96317 17.7976 9.25404 19.3701 8.86864 21.6825H8.85322L5.35379 21.775C4.56758 21.775 4.15135 22.2375 4.16676 23.0237L4.32092 29.113C4.33634 29.8992 4.7834 30.4388 5.56962 30.4079L9.06905 30.3154C9.6086 32.5045 10.4257 34.1078 11.5048 35.7419L11.4894 35.7727L9.06905 38.3163C8.52949 38.8867 8.56032 39.7808 9.11529 40.3204L13.5397 44.5135C14.1101 45.0531 15.0042 45.0223 15.5283 44.4673L17.1316 42.8949L18.1028 41.9391C19.1203 42.5249 20.1377 43.0028 21.2477 43.3882C21.4635 43.4653 21.7101 43.5423 21.9414 43.604C21.9414 43.604 21.9414 43.604 21.9568 43.604C22.5426 43.7736 23.1901 43.9123 23.8067 44.0356V44.0511L23.8376 45.7777L23.8838 47.5505C23.8992 48.3213 24.2384 49.015 25.0246 48.9996L31.1139 48.8454C31.8847 48.83 32.563 48.1055 32.5322 47.3347L32.4859 45.7777L32.4397 43.8352C32.8559 43.7273 33.2567 43.6194 33.6421 43.4961C33.8734 43.419 34.1046 43.3419 34.3358 43.2494C35.6154 42.7561 36.6945 42.1395 37.8198 41.3995V41.4149L38.4519 42.0162L40.3635 43.8352C40.9339 44.3748 41.8126 44.344 42.3521 43.789L46.5453 39.3646C47.0848 38.7942 47.054 37.9001 46.499 37.3759L43.94 34.9248C44.942 33.1828 45.6357 31.225 46.0366 29.375H46.052L49.5514 29.2826C50.3376 29.2671 51.1392 28.6505 51.1238 27.8797L50.9543 21.775Z" fill="#E9F0F9"/>
    <path d="M45.246 18.5823L41.7485 18.672C41.2104 16.4838 40.3854 14.7978 39.3092 13.1656L39.3272 13.0938L41.7485 10.529C42.2866 9.97294 42.2686 9.0582 41.6947 8.52011L37.2825 4.32304C36.7085 3.78496 35.8297 3.80289 35.2916 4.37685L32.6371 6.92379C30.8973 5.91936 29.9647 5.21985 26.8618 4.82526V4.80732L27.0591 1.30976C27.0411 0.538507 26.4492 -0.0175144 25.678 0.000421758L19.6516 0.161847C18.8803 0.179784 18.6292 0.753742 18.6471 1.525L18.7548 5.02255C16.5666 5.56064 14.8268 6.3857 13.1946 7.46188H13.105L10.5043 5.02255C9.94826 4.48447 9.03353 4.50241 8.49546 5.07636L4.28053 9.48867C3.74246 10.0447 3.76039 10.9415 4.33434 11.4796L6.88123 14.0265C5.87682 15.7663 5.17733 17.1115 4.78274 19.6944H4.7648L1.26731 19.7482C0.496071 19.7661 0.0656109 20.2145 0.0835468 20.9858L0.227033 27.0661C0.244969 27.8374 0.693365 28.3755 1.46461 28.3575L4.9621 28.2679C5.50017 30.4561 6.32522 32.0703 7.38343 33.7025L7.3655 33.7384L4.94416 36.2853C4.40608 36.8593 4.42402 37.7561 4.99797 38.2763L9.44606 42.4913C10.02 43.0293 10.8989 43.0114 11.4369 42.4374L13.9659 39.8905C15.7057 40.8949 17.5351 41.5944 19.6157 41.989V42.007L19.7592 45.5045C19.7771 46.2758 20.1358 46.9753 20.925 46.9574L27.0232 46.7959C27.7944 46.778 28.476 46.0606 28.458 45.2893L28.0276 41.7917C30.2158 41.2537 32.0273 40.4465 33.0496 39.3704V39.3883L35.9373 41.8097C36.4933 42.3478 37.5695 42.3298 38.1075 41.7559L42.3942 37.3436C42.9323 36.7875 42.9502 35.8907 42.3763 35.3527L39.8473 32.716C40.8517 30.9762 41.5691 30.0615 41.9637 26.9585H41.9817L45.4792 27.0661C46.2504 27.0482 47.0755 26.546 47.0396 25.7568L46.8782 19.7123C46.8602 18.9052 46.0352 18.5644 45.246 18.5823ZM20.0282 31.5681C19.9385 31.5322 19.8488 31.4964 19.7771 31.4605C19.526 31.3349 19.257 31.2094 19.0238 31.0659C18.8982 30.9942 18.7727 30.9224 18.6651 30.8507C18.5395 30.7789 18.4319 30.6892 18.3064 30.6175C18.2526 30.5816 18.1987 30.5278 18.127 30.4919C17.8042 30.2408 17.4992 29.9897 17.2123 29.7028C16.9253 29.4158 16.6563 29.1109 16.4052 28.788C16.2975 28.6625 16.2079 28.519 16.1182 28.3934C15.8492 27.9809 15.598 27.5683 15.4008 27.1199C14.9165 26.0796 14.6295 24.9138 14.6116 23.6762C14.5398 21.0934 15.5981 18.7617 17.3199 17.1115C17.4634 16.9681 17.6248 16.8246 17.7862 16.699C17.84 16.6452 17.8938 16.6093 17.9476 16.5735C18.0553 16.4838 18.1629 16.3941 18.2884 16.3224C18.6292 16.0712 18.9879 15.856 19.3825 15.6587C19.5081 15.587 19.6336 15.5332 19.7592 15.4794C20.7994 15.013 21.9473 14.726 23.149 14.7081C24.5839 14.6722 25.947 14.9771 27.1667 15.569C27.2922 15.6228 27.4178 15.6946 27.5433 15.7663C27.7227 15.874 27.92 15.9816 28.0993 16.0892C28.2249 16.1609 28.3325 16.2506 28.458 16.3224C28.5119 16.3582 28.5657 16.412 28.6374 16.4479C28.745 16.5376 28.8526 16.6273 28.9782 16.699C29.1396 16.8246 29.301 16.9681 29.4445 17.1115C29.5521 17.2012 29.6418 17.3088 29.7494 17.4165C30.0005 17.6676 30.2158 17.9366 30.431 18.2236C30.5207 18.3312 30.5924 18.4568 30.6821 18.5644C30.7538 18.6899 30.8435 18.7975 30.9153 18.9231C31.0229 19.1025 31.1305 19.2818 31.2202 19.4791C31.812 20.6091 32.1528 21.9005 32.1887 23.2637C32.2066 24.017 32.1349 24.7524 31.9735 25.4698C31.9376 25.6133 31.9017 25.7568 31.8659 25.8823C31.812 26.0976 31.7403 26.2949 31.6686 26.4922C31.6148 26.6177 31.5609 26.7612 31.5071 26.8868C31.4713 26.9765 31.4354 27.0661 31.3995 27.1379C31.3278 27.3172 31.2381 27.4787 31.1484 27.6401C31.0767 27.7656 31.0049 27.8912 30.9332 27.9988C30.8794 28.0885 30.8076 28.1961 30.7538 28.2858C30.7 28.3755 30.6462 28.4472 30.5924 28.5369C30.5565 28.5907 30.5027 28.6445 30.4669 28.7163C30.3772 28.8239 30.2875 28.9315 30.2158 29.0571C30.1799 29.1109 30.1261 29.1647 30.0723 29.2185C29.9826 29.3261 29.8929 29.4337 29.7853 29.5234C29.7315 29.5772 29.6956 29.631 29.6418 29.6669C29.4445 29.8642 29.2293 30.0615 29.0141 30.2408C28.9603 30.2767 28.9064 30.3305 28.8526 30.3664C28.745 30.4561 28.6374 30.5458 28.5119 30.6175C28.3863 30.6892 28.2787 30.7789 28.1531 30.8507C28.0993 30.8865 28.0276 30.9224 27.9738 30.9583C27.8482 31.03 27.7227 31.1018 27.5971 31.1735C26.4134 31.8192 25.0682 32.1959 23.6333 32.2318C22.4675 32.2676 21.3555 32.0703 20.3331 31.6757C20.2255 31.6399 20.1179 31.604 20.0282 31.5681Z" fill="#2D2D2D"/>
    <circle cx="23.6403" cy="23.5559" r="15.7049" fill="#E9F0F9"/>
</svg>
