<svg width="48" height="49" viewBox="0 0 48 49" fill="none" xmlns="http://www.w3.org/2000/svg">
    <path d="M8.34463 17.8641C8.40277 17.3594 8.83005 16.9785 9.33806 16.9785H42.5313C43.0393 16.9785 43.4666 17.3594 43.5247 17.8641L46.976 47.8232C47.0444 48.4169 46.5802 48.9376 45.9826 48.9376H5.88677C5.28914 48.9376 4.82494 48.4169 4.89334 47.8232L8.34463 17.8641Z" fill="#E9F0F9"/>
    <path d="M37.78 22.3051C38.7277 8.47095 34.0033 2.77454 27.1989 2.77454C20.3944 2.77454 15.8109 8.20079 15.8109 14.4929C15.8109 17.2817 15.8105 19.8638 15.8112 22.3051" stroke="#E9F0F9" stroke-width="2" stroke-linecap="round" stroke-linejoin="round"/>
    <path d="M20.3332 22.3038C20.3332 23.679 19.1669 24.8548 17.6515 24.8548C16.1361 24.8548 14.9698 23.679 14.9698 22.3038C14.9698 20.9287 16.1361 19.7528 17.6515 19.7528C19.1669 19.7528 20.3332 20.9287 20.3332 22.3038Z" stroke="#E9F0F9" stroke-width="2"/>
    <path d="M38.7415 22.3038C38.7415 23.679 37.5752 24.8548 36.0598 24.8548C34.5444 24.8548 33.3781 23.679 33.3781 22.3038C33.3781 20.9287 34.5444 19.7528 36.0598 19.7528C37.5752 19.7528 38.7415 20.9287 38.7415 22.3038Z" stroke="#E9F0F9" stroke-width="2"/>
    <path d="M4.69713 16.2041L37.8904 16.2041L41.3417 46.1632H1.24584L4.69713 16.2041Z" stroke="#2D2D2D" stroke-width="2"/>
    <path d="M29.5776 20.5306C35.1002 8.10203 28.8217 1 22.2134 1C15.605 1 11.1692 5.6767 11.1692 12.5408C11.1692 15.5832 12.0896 17.8673 13.01 20.5306" stroke="#2D2D2D" stroke-width="2" stroke-linecap="round" stroke-linejoin="round"/>
    <path d="M16.1916 20.5293C16.1916 22.1974 14.7843 23.5803 13.0099 23.5803C11.2355 23.5803 9.82819 22.1974 9.82819 20.5293C9.82819 18.8611 11.2355 17.4783 13.0099 17.4783C14.7843 17.4783 16.1916 18.8611 16.1916 20.5293Z" stroke="#2D2D2D"/>
    <path d="M32.2588 20.5293C32.2588 21.9044 31.0926 23.0803 29.5771 23.0803C28.0617 23.0803 26.8954 21.9044 26.8954 20.5293C26.8954 19.1542 28.0617 17.9783 29.5771 17.9783C31.0926 17.9783 32.2588 19.1542 32.2588 20.5293Z" stroke="#2D2D2D" stroke-width="2"/>
    <path d="M15.6916 20.2399C15.6916 21.615 14.5253 22.7909 13.0099 22.7909C11.4944 22.7909 10.3282 21.615 10.3282 20.2399C10.3282 18.8647 11.4944 17.6888 13.0099 17.6888C14.5253 17.6888 15.6916 18.8647 15.6916 20.2399Z" stroke="#2D2D2D" stroke-width="2"/>
</svg>
