<svg width="24" height="24" viewBox="0 0 24 24" fill="none" xmlns="http://www.w3.org/2000/svg">
<g clip-path="url(#clip0)">
<path d="M1.40625 1.40625H6.79724V0H0V6.79724H1.40625V1.40625Z" fill="white"/>
<path d="M17.2028 0V1.40625H22.5938V6.79724H24V0H17.2028Z" fill="white"/>
<path d="M1.40625 17.2028H0V24H6.79724V22.5938H1.40625V17.2028Z" fill="white"/>
<path d="M22.5938 22.5938H17.2028V24H24V17.2028H22.5938V22.5938Z" fill="white"/>
<path d="M15.7928 8.23029C14.7859 7.20325 13.4392 6.62994 12.0011 6.61584C11.983 6.61566 11.9654 6.61548 11.9473 6.61548C9.00292 6.61548 6.59289 8.99622 6.56377 11.947C6.54967 13.3853 7.09643 14.7428 8.10332 15.7698C9.11022 16.7967 10.4568 17.3702 11.8951 17.3843C11.913 17.3845 11.9308 17.3845 11.9487 17.3845C14.8931 17.3845 17.3033 15.0037 17.3322 12.053C17.3465 10.6149 16.7997 9.25714 15.7928 8.23029ZM11.9485 15.9782C11.9354 15.9782 11.922 15.9782 11.9088 15.978C10.8462 15.9676 9.85125 15.5439 9.10729 14.7853C8.36333 14.0265 7.9594 13.0234 7.96984 11.9607C7.99145 9.76727 9.79485 7.99847 11.9872 8.02191C13.0497 8.03235 14.0445 8.45605 14.7885 9.21466C15.5325 9.97363 15.9366 10.9765 15.9261 12.0392C15.9047 14.2195 14.124 15.9782 11.9485 15.9782Z" fill="white"/>
</g>
<defs>
<clipPath id="clip0">
<rect width="24" height="24" fill="white"/>
</clipPath>
</defs>
</svg>
