<svg width="20" height="20" viewBox="0 0 20 20" fill="none" xmlns="http://www.w3.org/2000/svg">
<g clip-path="url(#clip0)">
<path d="M19.7881 6.99776L14.0738 1.28352C13.9324 1.14213 13.765 1.07141 13.5716 1.07141C13.3781 1.07141 13.2106 1.14213 13.0694 1.28352C12.928 1.42499 12.8572 1.59242 12.8572 1.78584V4.64296H10.3572C5.05189 4.64296 1.79686 6.14225 0.59133 9.14077C0.197097 10.1377 0 11.3767 0 12.8573C0 14.0923 0.472493 15.7701 1.4174 17.8907C1.43968 17.9429 1.47862 18.032 1.53452 18.1585C1.59038 18.2848 1.64053 18.3965 1.68518 18.4933C1.72997 18.5899 1.77837 18.6717 1.8304 18.7386C1.91961 18.8652 2.02382 18.9286 2.14289 18.9286C2.2545 18.9286 2.34194 18.8914 2.40523 18.817C2.46837 18.7426 2.49999 18.6495 2.49999 18.5382C2.49999 18.471 2.49069 18.3726 2.47204 18.2423C2.45343 18.112 2.44409 18.0248 2.44409 17.9801C2.40684 17.4743 2.38823 17.0164 2.38823 16.6075C2.38823 15.856 2.45343 15.1826 2.58353 14.5874C2.71382 13.9921 2.89422 13.477 3.12494 13.0417C3.35561 12.6062 3.65314 12.2307 4.01782 11.9145C4.38234 11.5982 4.77478 11.3398 5.19516 11.1388C5.61562 10.9379 6.1104 10.7797 6.67961 10.6645C7.24877 10.5491 7.82165 10.4691 8.39836 10.4244C8.97507 10.3798 9.62797 10.3576 10.3572 10.3576H12.8572V13.2147C12.8572 13.4082 12.9278 13.5756 13.0691 13.717C13.2106 13.8582 13.3779 13.929 13.5713 13.929C13.7647 13.929 13.9322 13.8582 14.0738 13.717L19.788 8.00251C19.9294 7.86112 20 7.69377 20 7.50031C20 7.30689 19.9294 7.13942 19.7881 6.99776Z" fill="#88B7F5"/>
</g>
<defs>
<clipPath id="clip0">
<rect width="20" height="20" fill="white" transform="matrix(1 0 0 -1 0 20)"/>
</clipPath>
</defs>
</svg>
